<svg xmlns="http://www.w3.org/2000/svg" width="30" height="1140"><svg xmlns:xlink="http://www.w3.org/1999/xlink" height="30" width="30"><g fill="#EFC319"><path d="M20.5 14.6c0 3-2.5 5.5-5.5 5.6-3 0-5.6-2.4-5.6-5.6 0-3.1 2.6-5.6 5.6-5.6 3.1 0 5.5 2.5 5.5 5.6zM5.6 15.4h-1c-.6 0-1-.3-1-.8s.3-1 .9-1h2.3c.5 0 .8.5.8.9 0 .5-.4.9-.9.9-.4.1-.7 0-1.1 0zM24.3 15.4h-1c-.5 0-.899-.3-.899-.8 0-.6.3-1 .8-1h2.3c.5 0 .9.5.8.9 0 .5-.399.9-.899.9-.302.1-.702 0-1.102 0zM10 8.6c0 .4-.2.7-.5.8s-.7.1-1-.1l-1.6-1.5c-.4-.4-.4-1 0-1.3s1-.3 1.3 0l1.5 1.5c.2.2.3.4.3.6zM15.9 5.2v1.1c0 .5-.4.8-.9.8s-.9-.3-.9-.8v-2.3c0-.5.4-.9.9-.9s.9.4.9.9v1.2zM10 20.5c0 .2-.1.5-.3.7l-1.4 1.4s-1.3.4-1.5-.2c-.2-.3-.1-.8.2-1l1.6-1.6c.3-.3.6-.3 1-.1.3.1.4.4.4.8zM15.9 23.9v1.1c0 .5-.4.9-.9.9s-.9-.4-.9-.9v-2.2c0-.5.4-.9.9-.9s.9.4.9.9v1.1zM20 8.7c0-.2.1-.5.2-.6l1.5-1.5c.399-.4 1-.4 1.3 0 .4.4.4 1 0 1.3-.5.5-1 1-1.5 1.4-.3.3-.7.4-1 .2-.3-.1-.5-.4-.5-.8zM23.3 22.1c0 .3-.2.5-.5.7-.399.2-.7.1-1-.2l-1.6-1.6c-.3-.3-.3-.9 0-1.3.3-.3.899-.3 1.2 0l1.5 1.5c.3.3.4.5.4.9z"/></g></svg><svg xmlns:xlink="http://www.w3.org/1999/xlink" height="30" width="30" y="30"><g fill="#EFC319"><path d="M15.2 11.9c.986.934 1.534 1.928 1.758 3.059.064.328 1.854 0 3.125.896.583.417 1.479 1 2.188 2.292.8-1 1.43-2.246 1.43-3.646 0-3.1-2.4-5.6-5.601-5.6-1.699 0-3.267.837-4.267 2.038.399.199.708.394 1.367.961zM26.4 6.9c0 .2-.101.5-.2.6-.5.5-1 1.1-1.601 1.6-.3.3-.699.4-1.1.2-.6-.3-.7-1-.2-1.5l1.101-1.1.5-.5c.3-.3.6-.3 1-.2.3.2.5.5.5.9zM27.5 13.5h1.1c.5 0 .9.4.9.9s-.4.9-.9.9h-2.3c-.5 0-.899-.4-.899-.9s.399-.9.899-.9h1.2zM17 4.8v-1.1c0-.5.4-.9.9-.9s.9.3.9.8v2.4c0 .5-.399.9-.899.9s-.901-.4-.901-.9v-1.2zM10.3 5.9c.3 0 .5.1.7.3s.5.4.7.7c.4.4.4 1 0 1.3-.3.3-.9.3-1.3 0-.3-.2-.5-.5-.7-.8-.3-.3-.3-.6-.1-1 .1-.3.4-.5.7-.5zM25.5 22.9c-.2 0-.4-.1-.6-.2-.2-.2-.4-.4-.7-.6-.4-.4-.5-1-.101-1.4.4-.4 1-.4 1.4 0l.7.7c.3.3.3.6.2.9-.199.3-.499.6-.899.6z"/></g><path fill-rule="evenodd" clip-rule="evenodd" d="M11.402 25.997h-5.766c-.696 0-1.375-.095-2.032-.341-1.387-.523-2.425-1.434-3.049-2.783-.767-1.659-.753-3.322.124-4.931.74-1.356 1.877-2.254 3.387-2.646.156-.041.219-.111.256-.265.229-.944.64-1.801 1.27-2.546.971-1.147 2.173-1.923 3.654-2.225 1.59-.324 3.125-.149 4.551.651 1.605.899 2.694 2.227 3.171 4.022.038.141.099.172.231.169.872-.02 1.712.125 2.504.505.817.39 1.487.956 2.038 1.667.875 1.13 1.194 2.419 1.055 3.826-.243 2.464-2.141 4.462-4.572 4.824-.339.05-.683.068-1.026.069-1.93.008-3.863.004-5.796.004zm.021-1.884c1.938 0 3.875.003 5.814-.003.284-.001.575-.019.855-.072 1.672-.317 3.143-1.959 2.867-3.982-.23-1.686-1.727-3.042-3.433-3.077-.625-.012-1.251-.005-1.876-.004-.15 0-.224-.058-.238-.213l-.085-.64c-.13-1.115-.578-2.074-1.394-2.85-1.195-1.137-2.618-1.509-4.223-1.228-.833.146-1.555.531-2.183 1.091-.691.615-1.178 1.363-1.391 2.269-.102.427-.155.866-.221 1.3-.018.115-.07.168-.185.184-.315.04-.631.079-.943.135-.851.154-1.539.582-2.096 1.241-1.2 1.417-1.046 3.627.327 4.877.732.667 1.583.973 2.561.973 1.948-.002 3.896-.001 5.844-.001z" fill="#7F7F7F"/></svg><svg xmlns:xlink="http://www.w3.org/1999/xlink" height="30" width="30" y="60"><g fill="#EFC319"><path d="M15.062 10.406c.986.934 1.573 1.979 1.797 3.109.064.328 1.872-.057 3.144.839.583.417 1.479 1 2.188 2.292.8-1 1.43-2.246 1.43-3.646 0-3.1-2.4-5.6-5.601-5.6-1.699 0-3.268.837-4.268 2.038.4.2.651.402 1.31.968zM26.32 5.4c0 .2-.101.5-.2.6-.5.5-1 1.1-1.601 1.6-.3.3-.699.4-1.1.2-.6-.3-.7-1-.2-1.5l1.101-1.1.5-.5c.3-.3.6-.3 1-.2.3.2.5.5.5.9zM27.42 12h1.1c.5 0 .9.4.9.9s-.4.9-.9.9h-2.3c-.5 0-.899-.4-.899-.9s.399-.9.899-.9h1.2zM16.92 3.3v-1.1c0-.5.4-.9.9-.9s.899.3.899.8v2.4c0 .5-.399.9-.899.9s-.9-.4-.9-.9v-1.2zM10.219 4.4c.3 0 .5.1.7.3s.5.4.7.7c.399.4.399 1 0 1.3-.3.3-.9.3-1.3 0-.301-.2-.5-.5-.7-.8-.3-.3-.3-.6-.101-1 .102-.3.401-.5.701-.5zM25.42 21.4c-.2 0-.4-.1-.6-.2-.2-.2-.4-.4-.7-.6-.4-.4-.5-1-.101-1.4.4-.4 1-.4 1.4 0l.7.7c.3.3.3.6.2.9-.199.3-.499.6-.899.6z"/></g><path fill-rule="evenodd" clip-rule="evenodd" d="M16.418 15.452l-.796.002c-.191.006-.273-.074-.303-.263-.068-.455-.12-.916-.242-1.358-.347-1.269-1.137-2.205-2.299-2.796-1.344-.685-2.747-.754-4.121-.118-1.557.72-2.474 1.956-2.695 3.679-.025.193-.067.387-.07.582-.004.2-.116.233-.277.26-.46.077-.933.119-1.374.26-1.532.49-2.541 2.161-2.323 3.755.193 1.415.96 2.386 2.262 2.929.322.134.688.17 1.037.229.148.025.21.085.21.227l.001 1.364c.002.189-.095.234-.267.225-.896-.051-1.729-.309-2.5-.761-1.381-.808-2.237-2.014-2.552-3.569-.592-2.917 1.258-5.546 3.836-6.237.213-.057.293-.154.35-.359.675-2.424 2.238-4.02 4.652-4.655 3.01-.792 5.976.562 7.424 3.23.228.419.374.885.529 1.339.058.17.119.229.298.226 1.465-.029 2.744.454 3.817 1.446.944.872 1.484 1.969 1.644 3.238.238 1.913-.367 3.529-1.803 4.816-.923.826-2.023 1.242-3.263 1.29-.193.008-.262-.071-.259-.258.008-.427.008-.854 0-1.28-.003-.178.052-.259.245-.281 1.354-.154 2.357-.849 2.961-2.059.691-1.381.361-3.001-.748-4.079-.74-.719-1.628-1.024-2.642-1.022l-.732-.002z" fill="#7F7F7F"/><path fill-rule="evenodd" clip-rule="evenodd" d="M11.512 21.024c.958.971 1.892 1.932 2.377 3.227.532 1.418-.345 2.852-1.634 3.243-1.419.433-2.888-.406-3.227-1.819-.154-.649-.035-1.264.262-1.848.547-1.074 1.34-1.954 2.222-2.803z" fill="#3DBAE7"/></svg><svg xmlns:xlink="http://www.w3.org/1999/xlink" height="30" width="30" y="90"><g fill="#EFC319"><path d="M15.462 10.267c.987.934 1.574 1.979 1.797 3.109.064.328 1.872-.057 3.144.839.583.417 1.479 1 2.188 2.292.8-1 1.43-2.246 1.43-3.646 0-3.1-2.4-5.6-5.601-5.6-1.699 0-3.268.837-4.268 2.038.4.199.651.401 1.31.968zM26.721 5.26c0 .2-.101.5-.2.6-.5.5-1 1.1-1.601 1.6-.3.3-.699.4-1.1.2-.6-.3-.7-1-.2-1.5l1.101-1.1.5-.5c.3-.3.6-.3 1-.2.3.201.5.5.5.9zM27.82 11.86h1.1c.5 0 .9.4.9.9s-.4.9-.9.9h-2.3c-.5 0-.899-.4-.899-.9s.399-.9.899-.9h1.2zM17.32 3.16v-1.1c0-.5.4-.9.9-.9s.899.3.899.8v2.4c0 .5-.399.9-.899.9s-.9-.4-.9-.9v-1.2zM10.62 4.26c.299 0 .5.1.699.3.2.2.501.4.7.7.4.4.4 1 0 1.3-.299.3-.899.3-1.3 0-.301-.2-.5-.5-.699-.8-.301-.3-.301-.6-.102-1 .102-.3.401-.5.702-.5zM25.82 21.26c-.2 0-.4-.1-.6-.2-.2-.2-.4-.4-.7-.6-.4-.4-.5-1-.101-1.4.4-.4 1-.4 1.4 0l.7.7c.3.3.3.6.2.9-.198.3-.498.6-.899.6z"/></g><path fill-rule="evenodd" clip-rule="evenodd" d="M11.582 24.414h-5.857c-.707 0-1.397-.096-2.064-.347-1.409-.531-2.463-1.456-3.097-2.826-.779-1.685-.765-3.375.126-5.008.751-1.378 1.906-2.289 3.44-2.687.159-.042.223-.113.261-.27.231-.958.649-1.829 1.289-2.586.985-1.165 2.207-1.954 3.712-2.26 1.615-.329 3.173-.151 4.623.661 1.629.914 2.734 2.262 3.221 4.085.039.143.101.175.234.171.887-.019 1.738.127 2.544.513.829.396 1.511.971 2.069 1.694.888 1.147 1.213 2.456 1.072 3.885-.247 2.502-2.175 4.532-4.645 4.899-.344.051-.694.069-1.042.071-1.961.008-3.923.005-5.886.005z" fill="#7F7F7F"/><g fill-rule="evenodd" clip-rule="evenodd" fill="#3DBAE7"><path d="M12.803 21.274c.958.971 1.892 1.932 2.377 3.227.532 1.418-.345 2.852-1.634 3.243-1.419.433-2.888-.406-3.227-1.819-.154-.649-.035-1.264.262-1.848.547-1.074 1.34-1.954 2.222-2.803zM8.56 18.36c.501.434.855.976 1.156 1.555.117.221.225.453.295.691.296 1.007-.508 1.966-1.551 1.866-.822-.078-1.354-.572-1.459-1.362-.045-.341.086-.647.229-.943.33-.683.807-1.258 1.33-1.807zM12.971 16.29c.29.437.604.827.827 1.264.322.636.035 1.297-.594 1.468-.428.118-.807.012-1.1-.329-.271-.311-.307-.661-.141-1.037.224-.507.545-.942 1.008-1.366z"/></g></svg><svg xmlns:xlink="http://www.w3.org/1999/xlink" height="30" width="30" y="120"><g fill="#EFC319"><path d="M15.463 11.017c.986.934 1.573 1.979 1.797 3.109.064.328 1.872-.057 3.144.839.583.417 1.479 1 2.188 2.292.8-1 1.43-2.246 1.43-3.646 0-3.1-2.4-5.6-5.601-5.6-1.699 0-3.268.837-4.268 2.038.4.199.65.401 1.31.968zM26.721 6.01c0 .2-.101.5-.2.6-.5.5-1 1.1-1.601 1.6-.3.3-.699.4-1.1.2-.6-.3-.7-1-.2-1.5l1.101-1.1.5-.5c.3-.3.6-.3 1-.2.3.201.5.5.5.9zM27.82 12.61h1.1c.5 0 .9.4.9.9s-.4.9-.9.9h-2.3c-.5 0-.899-.4-.899-.9s.399-.9.899-.9h1.2zM17.32 3.91v-1.1c0-.5.4-.9.9-.9s.899.3.899.8v2.4c0 .5-.399.9-.899.9s-.9-.4-.9-.9v-1.2zM10.619 5.01c.299 0 .5.1.699.3.201.2.502.4.701.7.4.4.4 1 0 1.3-.299.3-.9.3-1.301 0-.301-.2-.5-.5-.699-.8-.301-.3-.301-.6-.102-1 .103-.3.401-.5.702-.5zM25.82 22.01c-.2 0-.4-.1-.6-.2-.2-.2-.4-.4-.7-.6-.4-.4-.5-1-.101-1.4.4-.4 1-.4 1.4 0l.7.7c.3.3.3.6.2.9-.198.3-.498.6-.899.6z"/></g><path fill-rule="evenodd" clip-rule="evenodd" d="M11.665 25.205h-5.857c-.707 0-1.397-.096-2.064-.347-1.409-.531-2.463-1.456-3.097-2.826-.779-1.685-.765-3.375.126-5.008.751-1.378 1.906-2.289 3.44-2.687.159-.042.223-.113.261-.27.231-.958.649-1.829 1.289-2.586.986-1.165 2.207-1.954 3.712-2.26 1.614-.329 3.173-.151 4.622.661 1.63.914 2.734 2.262 3.221 4.085.039.143.101.175.234.171.887-.019 1.738.127 2.544.513.829.396 1.511.971 2.069 1.694.888 1.147 1.213 2.456 1.072 3.885-.247 2.502-2.175 4.532-4.645 4.899-.344.051-.694.069-1.042.071-1.96.008-3.922.005-5.885.005z" fill="#7F7F7F"/><path fill-rule="evenodd" clip-rule="evenodd" d="M8.471 20.774c.958.971 1.892 1.932 2.377 3.227.532 1.418-.345 2.852-1.634 3.243-1.419.433-2.888-.406-3.227-1.819-.154-.649-.035-1.264.262-1.848.547-1.074 1.34-1.954 2.222-2.803z" fill="#3DBAE7"/><path fill-rule="evenodd" clip-rule="evenodd" d="M16.213 21.022l-.06.083-1.584 1.583c-.269.268-.67.206-.837-.125-.089-.174-.066-.39.07-.527l1.313-1.313.422-.426h-2.3859999999999997c-.25 0-.453-.155-.506-.383-.055-.23.052-.478.266-.577.086-.039.19-.054.286-.055.735-.004 1.47-.001 2.205-.001h.124l-.085-.089c-.534-.534-1.062-1.073-1.604-1.601-.289-.282-.146-.76.236-.855.156-.039.304-.008.432.096l.086.08 1.57 1.571.081.074v-2.374c0-.365.344-.618.681-.498.198.072.306.225.331.434l.003.136v2.321l.083-.077 1.579-1.588c.111-.11.236-.19.402-.188.293.002.514.246.489.54-.012.146-.069.264-.172.365l-1.567 1.564-.082.089h2.338c.258 0 .449.125.524.337.118.341-.122.678-.487.679h-2.383l.074.081 1.601 1.602c.255.255.189.679-.126.828-.182.085-.358.063-.519-.059l-.086-.081-1.575-1.58-.059-.084-.035.019v.095l.001 2.256c.002.209-.071.377-.256.484-.331.191-.755-.053-.76-.443v-2.3720000000000003l-.028-.021z" fill="#fff"/></svg><svg xmlns:xlink="http://www.w3.org/1999/xlink" height="30" width="30" y="150"><g fill="#EFC319"><path d="M15.463 9.392c.986.934 1.573 1.979 1.797 3.109.064.328 1.872-.057 3.144.839.583.417 1.479 1 2.188 2.292.8-1 1.43-2.246 1.43-3.646 0-3.1-2.4-5.6-5.601-5.6-1.699 0-3.268.837-4.268 2.038.4.199.65.401 1.31.968zM26.721 4.385c0 .2-.101.5-.2.6-.5.5-1 1.1-1.601 1.6-.3.3-.699.4-1.1.2-.6-.3-.7-1-.2-1.5l1.101-1.1.5-.5c.3-.3.6-.3 1-.2.3.201.5.5.5.9zM27.82 10.985h1.1c.5 0 .9.4.9.9s-.4.9-.9.9h-2.3c-.5 0-.899-.4-.899-.9s.399-.9.899-.9h1.2zM17.32 2.285v-1.1c0-.5.4-.9.9-.9s.899.3.899.8v2.4c0 .5-.399.9-.899.9s-.9-.4-.9-.9v-1.2zM10.619 3.385c.299 0 .5.1.699.3.201.2.502.4.701.7.4.4.4 1 0 1.3-.299.3-.9.3-1.301 0-.301-.2-.5-.5-.699-.8-.301-.3-.301-.6-.102-1 .103-.3.401-.5.702-.5zM25.82 20.385c-.2 0-.4-.1-.6-.2-.2-.2-.4-.4-.7-.6-.4-.4-.5-1-.101-1.4.4-.4 1-.4 1.4 0l.7.7c.3.3.3.6.2.9-.198.3-.498.6-.899.6z"/></g><path fill-rule="evenodd" clip-rule="evenodd" d="M11.791 22.539h-5.857c-.707 0-1.397-.096-2.064-.347-1.409-.531-2.463-1.456-3.097-2.826-.779-1.685-.765-3.375.126-5.008.751-1.378 1.906-2.289 3.44-2.687.159-.042.223-.113.261-.27.231-.958.65-1.829 1.289-2.586.986-1.165 2.207-1.954 3.713-2.26 1.614-.329 3.173-.151 4.622.661 1.63.914 2.734 2.262 3.22 4.085.039.143.102.175.234.171.887-.019 1.738.127 2.545.513.828.396 1.51.971 2.068 1.694.889 1.147 1.213 2.456 1.072 3.885-.246 2.502-2.174 4.532-4.645 4.899-.344.051-.693.069-1.041.071-1.962.008-3.924.005-5.886.005z" fill="#7F7F7F"/><g fill="#CECECE"><circle cx="14.421" r="1.13" cy="26.413"/><circle cx="10.592" r="1.13" cy="27.857"/><circle cx="8.498" r="1.13" cy="25.301"/><circle cx="4.562" r="1.13" cy="26.625"/><circle cx="16.164" r="1.13" cy="22.628"/><circle cx="12.334" r="1.13" cy="24.073"/><circle cx="10.241" r="1.13" cy="21.516"/><circle cx="6.305" r="1.13" cy="22.84"/><circle cx="17.937" r="1.13" cy="18.5"/><circle cx="14.108" r="1.13" cy="19.944"/><circle cx="12.014" r="1.13" cy="17.388"/><circle cx="8.079" r="1.13" cy="18.712"/></g></svg><svg xmlns:xlink="http://www.w3.org/1999/xlink" height="30" width="30" y="180"><g fill="#EFC319"><path d="M15.463 11.392c.986.934 1.573 1.979 1.797 3.109.064.328 1.872-.057 3.144.839.583.417 1.479 1 2.188 2.292.8-1 1.43-2.246 1.43-3.646 0-3.1-2.4-5.6-5.601-5.6-1.699 0-3.268.837-4.268 2.038.4.199.65.401 1.31.968zM26.721 6.385c0 .2-.101.5-.2.6-.5.5-1 1.1-1.601 1.6-.3.3-.699.4-1.1.2-.6-.3-.7-1-.2-1.5l1.101-1.1.5-.5c.3-.3.6-.3 1-.2.3.201.5.5.5.9zM27.82 12.985h1.1c.5 0 .9.4.9.9s-.4.9-.9.9h-2.3c-.5 0-.899-.4-.899-.9s.399-.9.899-.9h1.2zM17.32 4.285v-1.1c0-.5.4-.9.9-.9s.899.3.899.8v2.4c0 .5-.399.9-.899.9s-.9-.4-.9-.9v-1.2zM10.619 5.385c.299 0 .5.1.699.3.201.2.502.4.701.7.4.4.4 1 0 1.3-.299.3-.9.3-1.301 0-.301-.2-.5-.5-.699-.8-.301-.3-.301-.6-.102-1 .103-.3.401-.5.702-.5zM25.82 22.385c-.2 0-.4-.1-.6-.2-.2-.2-.4-.4-.7-.6-.4-.4-.5-1-.101-1.4.4-.4 1-.4 1.4 0l.7.7c.3.3.3.6.2.9-.198.3-.498.6-.899.6z"/></g><path fill-rule="evenodd" clip-rule="evenodd" d="M11.583 25.664h-5.857c-.707 0-1.397-.096-2.064-.347-1.409-.531-2.463-1.456-3.097-2.826-.779-1.685-.765-3.375.126-5.008.751-1.378 1.906-2.289 3.44-2.687.159-.042.223-.113.261-.27.231-.958.649-1.829 1.289-2.586.986-1.165 2.207-1.954 3.712-2.26 1.614-.329 3.173-.151 4.622.661 1.63.914 2.735 2.262 3.221 4.085.039.143.1.175.234.171.887-.019 1.738.127 2.543.513.83.396 1.512.971 2.07 1.694.887 1.147 1.213 2.456 1.072 3.885-.248 2.502-2.176 4.532-4.645 4.899-.344.051-.695.069-1.043.071-1.96.008-3.922.005-5.884.005z" fill="#7F7F7F"/><path fill-rule="evenodd" clip-rule="evenodd" d="M16.714 21.605l-.06.083-1.584 1.583c-.269.268-.67.206-.837-.125-.089-.174-.066-.39.07-.527l1.313-1.313.422-.426h-2.3859999999999997c-.25 0-.453-.155-.506-.383-.055-.23.052-.478.266-.577.086-.039.19-.054.286-.055.735-.004 1.47-.001 2.205-.001h.124l-.085-.089c-.534-.534-1.062-1.073-1.604-1.601-.289-.282-.146-.76.236-.855.156-.039.304-.008.432.096l.086.08 1.57 1.571.081.074v-2.374c0-.365.344-.618.681-.498.198.072.306.225.331.434l.003.136v2.321l.083-.077 1.579-1.588c.111-.11.236-.19.402-.188.293.002.514.246.489.54-.012.146-.069.264-.172.365l-1.567 1.564-.082.089h2.338c.258 0 .449.125.524.337.118.341-.122.678-.487.679h-2.383l.074.081 1.601 1.602c.255.255.189.679-.126.828-.182.085-.358.063-.519-.059l-.086-.081-1.575-1.58-.059-.084-.035.019v.095l.001 2.256c.002.209-.071.377-.256.484-.331.191-.755-.053-.76-.443v-2.3720000000000003l-.028-.021z" fill="#fff"/></svg><svg xmlns:xlink="http://www.w3.org/1999/xlink" height="30" width="30" y="210"><g fill="#EFC319"><path d="M15.213 11.392c.986.934 1.573 1.979 1.797 3.109.064.328 1.872-.057 3.144.839.583.417 1.479 1 2.188 2.292.8-1 1.43-2.246 1.43-3.646 0-3.1-2.4-5.6-5.601-5.6-1.699 0-3.268.837-4.268 2.038.4.199.65.401 1.31.968zM26.471 6.385c0 .2-.101.5-.2.6-.5.5-1 1.1-1.601 1.6-.3.3-.699.4-1.1.2-.6-.3-.7-1-.2-1.5l1.101-1.1.5-.5c.3-.3.6-.3 1-.2.3.201.5.5.5.9zM27.57 12.985h1.1c.5 0 .9.4.9.9s-.4.9-.9.9h-2.3c-.5 0-.899-.4-.899-.9s.399-.9.899-.9h1.2zM17.07 4.285v-1.1c0-.5.4-.9.9-.9s.899.3.899.8v2.4c0 .5-.399.9-.899.9s-.9-.4-.9-.9v-1.2zM10.369 5.385c.299 0 .5.1.699.3.201.2.502.4.701.7.4.4.4 1 0 1.3-.299.3-.9.3-1.301 0-.301-.2-.5-.5-.699-.8-.301-.3-.301-.6-.102-1 .103-.3.401-.5.702-.5zM25.57 22.385c-.2 0-.4-.1-.6-.2-.2-.2-.4-.4-.7-.6-.4-.4-.5-1-.101-1.4.4-.4 1-.4 1.4 0l.7.7c.3.3.3.6.2.9-.198.3-.498.6-.899.6z"/></g><path fill-rule="evenodd" clip-rule="evenodd" d="M11.623 25.706h-5.857c-.707 0-1.397-.096-2.064-.347-1.409-.531-2.463-1.456-3.097-2.826-.779-1.685-.765-3.375.126-5.008.751-1.378 1.906-2.289 3.44-2.687.159-.042.223-.113.261-.27.231-.958.649-1.829 1.289-2.586.985-1.165 2.207-1.954 3.712-2.26 1.614-.329 3.173-.151 4.622.661 1.63.914 2.734 2.262 3.221 4.085.039.143.101.175.234.171.887-.019 1.738.127 2.544.513.829.396 1.511.971 2.069 1.694.888 1.147 1.213 2.456 1.072 3.885-.247 2.502-2.175 4.532-4.645 4.899-.344.051-.694.069-1.042.071-1.96.008-3.922.005-5.885.005z" fill="#7F7F7F"/><g fill-rule="evenodd" clip-rule="evenodd" fill="#fff"><path d="M16.589 21.605l-.06.083-1.584 1.583c-.269.268-.67.206-.837-.125-.089-.174-.066-.39.07-.527l1.313-1.313.422-.426h-2.3859999999999997c-.25 0-.453-.155-.506-.383-.055-.23.052-.478.266-.577.086-.039.19-.054.286-.055.735-.004 1.47-.001 2.205-.001h.124l-.085-.089c-.534-.534-1.062-1.073-1.604-1.601-.289-.282-.146-.76.236-.855.156-.039.304-.008.432.096l.086.08 1.57 1.571.081.074v-2.374c0-.365.344-.618.681-.498.198.072.306.225.331.434l.003.136v2.321l.083-.077 1.579-1.588c.111-.11.236-.19.402-.188.293.002.514.246.489.54-.012.146-.069.264-.172.365l-1.567 1.564-.082.089h2.338c.258 0 .449.125.524.337.118.341-.122.678-.487.679h-2.383l.074.081 1.601 1.602c.255.255.189.679-.126.828-.182.085-.358.063-.519-.059l-.086-.081-1.575-1.58-.059-.084-.035.019v.095l.001 2.256c.002.209-.071.377-.256.484-.331.191-.755-.053-.76-.443v-2.3720000000000003l-.028-.021zM8.966 22.746l-.036.05-.961.961c-.163.162-.407.125-.508-.076-.054-.105-.041-.236.042-.319l.797-.798.256-.258h-1.448c-.152 0-.275-.095-.307-.232-.033-.14.031-.29.161-.351l.174-.033h1.413l-.052-.055-.973-.972c-.175-.171-.088-.461.144-.519.095-.023.184-.005.262.058l.052.049.953.954.049.045v-1.4409999999999998c0-.222.208-.375.413-.302.12.044.186.136.201.263l.002.083v1.4080000000000001l.05-.047.958-.963c.068-.067.145-.116.244-.115.178.002.312.149.297.328-.006.089-.041.16-.104.222l-.951.949-.051.055h1.42c.156 0 .272.075.318.204.071.207-.074.411-.296.412h-1.4460000000000002l.045.049.972.973c.154.154.114.412-.077.502-.109.052-.217.039-.314-.035l-.052-.049-.956-.959-.035-.052-.021.012v1.427c.002.127-.043.229-.155.294-.201.116-.458-.032-.461-.27v-1.44l-.019-.012z"/></g></svg><svg xmlns:xlink="http://www.w3.org/1999/xlink" height="30" width="30" y="240"><g fill="#EFC319"><path d="M15.588 9.142c.986.934 1.573 1.979 1.797 3.109.064.328 1.872-.057 3.144.839.583.417 1.479 1 2.188 2.292.8-1 1.43-2.246 1.43-3.646 0-3.1-2.4-5.6-5.601-5.6-1.699 0-3.268.837-4.268 2.038.4.199.65.401 1.31.968zM26.846 4.135c0 .2-.101.5-.2.6-.5.5-1 1.1-1.601 1.6-.3.3-.699.4-1.1.2-.6-.3-.7-1-.2-1.5l1.101-1.1.5-.5c.3-.3.6-.3 1-.2.3.201.5.5.5.9zM27.945 10.735h1.1c.5 0 .9.4.9.9s-.4.9-.9.9h-2.3c-.5 0-.899-.4-.899-.9s.399-.9.899-.9h1.2zM17.445 2.035v-1.1c0-.5.4-.9.9-.9s.899.3.899.8v2.4c0 .5-.399.9-.899.9s-.9-.4-.9-.9v-1.2zM10.744 3.135c.299 0 .5.1.699.3.201.2.502.4.701.7.4.4.4 1 0 1.3-.299.3-.9.3-1.301 0-.301-.2-.5-.5-.699-.8-.301-.3-.301-.6-.102-1 .103-.3.401-.5.702-.5zM25.945 20.135c-.2 0-.4-.1-.6-.2-.2-.2-.4-.4-.7-.6-.4-.4-.5-1-.101-1.4.4-.4 1-.4 1.4 0l.7.7c.3.3.3.6.2.9-.198.3-.498.6-.899.6z"/></g><path fill-rule="evenodd" clip-rule="evenodd" d="M11.791 23.33h-5.857c-.707 0-1.397-.096-2.064-.347-1.409-.531-2.463-1.456-3.097-2.826-.779-1.685-.765-3.375.126-5.008.751-1.378 1.906-2.289 3.44-2.687.159-.042.223-.113.261-.27.231-.958.649-1.829 1.289-2.586.985-1.165 2.207-1.954 3.712-2.26 1.614-.329 3.173-.151 4.622.661 1.63.914 2.734 2.262 3.22 4.085.039.143.102.175.234.171.887-.019 1.738.127 2.545.513.828.396 1.51.971 2.068 1.694.889 1.147 1.213 2.456 1.072 3.885-.246 2.502-2.174 4.532-4.645 4.899-.344.051-.693.069-1.041.071-1.961.008-3.923.005-5.885.005z" fill="#7F7F7F"/><path fill-rule="evenodd" clip-rule="evenodd" d="M16.576 20.629c.736 0 1.436-.002 2.132.004l.256.064-.093.25c-1.765 2.616-3.535 5.228-5.297 7.846-.109.162-.222.231-.427.165l2.538-6.629-.242-.012h-1.816c-.362 0-.391-.042-.266-.375.545-1.453 1.091-2.906 1.638-4.358.164-.435.332-.867.487-1.305.064-.177.17-.25.357-.25l2.874.002c.289 0 .316.053.175.315l-2.212 4.079-.104.204z" fill="#EFC319"/><g fill-rule="evenodd" clip-rule="evenodd" fill="#3DBAE7"><path d="M8.387 20.358c.959.971 1.893 1.932 2.377 3.227.533 1.418-.344 2.852-1.633 3.243-1.42.433-2.889-.406-3.227-1.819-.154-.649-.035-1.264.262-1.848.547-1.075 1.34-1.954 2.221-2.803zM4.145 17.444c.5.434.855.976 1.156 1.555.117.221.225.453.295.691.295 1.007-.508 1.966-1.551 1.866-.822-.079-1.355-.572-1.459-1.362-.045-.341.086-.647.229-.943.33-.683.806-1.258 1.33-1.807zM8.555 15.374c.291.437.605.827.828 1.264.322.636.035 1.297-.594 1.468-.428.118-.807.012-1.1-.329-.271-.311-.307-.661-.141-1.037.223-.507.544-.943 1.007-1.366z"/></g></svg><svg xmlns:xlink="http://www.w3.org/1999/xlink" height="30" width="30" y="270"><path d="M21.642 17.147c-4.172 0-7.509-3.337-7.509-7.509 0-1.252.278-2.364.834-3.338-4.867 0-8.761 4.033-8.761 8.9s4.033 8.899 8.9 8.899c4.311 0 7.926-3.198 8.761-7.23-.835.14-1.53.278-2.225.278z" fill="#BFBFBF"/></svg><svg xmlns:xlink="http://www.w3.org/1999/xlink" height="30" width="30" y="300"><path d="M25.05 12.279c-2.8 0-5.1-2.3-5.1-5.1 0-.9.2-1.8.6-2.5-2.8 0-5.2 1.9-6.1 4.4.5.1 1.1.3 1.6.6 1.601.9 2.7 2.2 3.2 4 0 .1.1.2.2.2.899 0 1.7.1 2.5.5s1.5 1 2 1.7c.1.1.1.2.2.2 1.399-1 2.399-2.5 2.699-4.3-.599.2-1.199.3-1.799.3z" fill="#BFBFBF"/><path fill-rule="evenodd" clip-rule="evenodd" d="M13.736 24.747h-5.766c-.697 0-1.375-.095-2.032-.341-1.388-.523-2.425-1.434-3.049-2.783-.767-1.659-.753-3.322.124-4.931.74-1.356 1.877-2.254 3.387-2.646.156-.041.22-.111.257-.265.229-.944.64-1.801 1.27-2.546.971-1.147 2.173-1.923 3.654-2.225 1.59-.324 3.124-.149 4.552.651 1.605.899 2.693 2.227 3.171 4.022.038.141.099.172.231.169.872-.02 1.712.125 2.504.505.817.39 1.487.956 2.038 1.667.875 1.13 1.194 2.419 1.055 3.826-.243 2.464-2.141 4.462-4.572 4.824-.339.05-.683.068-1.026.069-1.932.008-3.864.004-5.798.004zm.022-1.884c1.938 0 3.875.003 5.813-.003.284-.001.575-.019.855-.072 1.672-.317 3.143-1.959 2.867-3.982-.23-1.686-1.727-3.042-3.433-3.077-.625-.012-1.251-.005-1.877-.004-.15 0-.223-.058-.237-.213l-.085-.64c-.131-1.115-.578-2.074-1.395-2.85-1.194-1.137-2.617-1.509-4.223-1.228-.832.146-1.555.531-2.183 1.091-.691.615-1.179 1.363-1.392 2.269-.102.427-.154.866-.221 1.3-.018.115-.07.168-.186.184-.314.04-.631.079-.942.135-.851.154-1.539.582-2.097 1.241-1.196 1.417-1.042 3.626.332 4.876.731.667 1.582.973 2.561.973h5.843z" fill="#7F7F7F"/></svg><svg xmlns:xlink="http://www.w3.org/1999/xlink" height="30" width="30" y="330"><path d="M25.4 10.8c-2.8 0-5.1-2.3-5.1-5.1 0-.9.2-1.8.601-2.5-2.801 0-5.2 1.9-6.101 4.4.5.1 1.1.3 1.6.6 1.6.9 2.699 2.2 3.199 4 0 .1.101.2.2.2.9 0 1.7.1 2.5.5s1.5 1 2 1.7c.101.1.101.2.2.2 1.4-1 2.4-2.5 2.7-4.3-.599.1-1.199.3-1.799.3z" fill="#BFBFBF"/><path fill-rule="evenodd" clip-rule="evenodd" d="M19.168 14.077l-.796.002c-.19.006-.273-.074-.303-.263-.067-.455-.12-.916-.241-1.358-.348-1.269-1.137-2.205-2.299-2.796-1.345-.685-2.748-.754-4.121-.118-1.557.72-2.475 1.956-2.695 3.679-.025.193-.066.387-.07.582-.004.2-.116.233-.277.26-.46.077-.933.119-1.373.26-1.533.49-2.541 2.161-2.324 3.755.193 1.415.961 2.386 2.263 2.929.321.134.688.17 1.037.229.148.025.21.085.21.227l.002 1.364c.002.189-.096.234-.268.225-.896-.051-1.729-.309-2.5-.761-1.381-.808-2.236-2.014-2.551-3.569-.593-2.917 1.258-5.546 3.836-6.237.213-.057.293-.154.35-.359.675-2.424 2.238-4.02 4.652-4.655 3.01-.792 5.975.562 7.424 3.23.228.419.374.885.529 1.339.058.17.119.229.298.226 1.465-.029 2.744.454 3.817 1.446.944.872 1.484 1.969 1.644 3.238.238 1.913-.367 3.529-1.803 4.816-.923.826-2.023 1.242-3.263 1.29-.193.008-.262-.071-.259-.258.008-.427.008-.854 0-1.28-.003-.178.052-.259.245-.281 1.354-.154 2.357-.849 2.961-2.059.691-1.381.361-3.001-.748-4.079-.74-.719-1.628-1.024-2.642-1.022l-.735-.002z" fill="#7F7F7F"/><path fill-rule="evenodd" clip-rule="evenodd" d="M14.221 19.191c.958.971 1.892 1.932 2.377 3.227.532 1.418-.345 2.852-1.634 3.243-1.419.433-2.888-.406-3.227-1.819-.154-.649-.035-1.264.262-1.848.547-1.074 1.34-1.954 2.222-2.803z" fill="#3DBAE7"/></svg><svg xmlns:xlink="http://www.w3.org/1999/xlink" height="30" width="30" y="360"><path d="M25.5 10.9c-2.8 0-5.1-2.3-5.1-5.1 0-.9.2-1.8.6-2.5-2.8 0-5.2 1.9-6.1 4.4.5.1 1.1.3 1.6.6 1.6.9 2.7 2.2 3.2 4 0 .1.1.2.2.2.899 0 1.699.1 2.5.5.8.4 1.5 1 2 1.7.1.1.1.2.199.2 1.4-1 2.4-2.5 2.7-4.3-.599.2-1.199.3-1.799.3z" fill="#BFBFBF"/><path fill-rule="evenodd" clip-rule="evenodd" d="M14.082 23.414h-5.857c-.707 0-1.397-.096-2.064-.347-1.409-.531-2.463-1.456-3.097-2.826-.779-1.685-.765-3.375.126-5.008.751-1.378 1.906-2.289 3.44-2.687.159-.042.223-.113.261-.27.231-.958.649-1.829 1.289-2.586.985-1.165 2.207-1.954 3.712-2.26 1.615-.329 3.173-.151 4.623.661 1.63.914 2.734 2.262 3.221 4.085.039.143.101.175.234.171.887-.019 1.738.127 2.544.513.829.396 1.511.971 2.069 1.694.888 1.147 1.213 2.456 1.072 3.885-.247 2.502-2.175 4.532-4.645 4.899-.344.051-.694.069-1.042.071-1.961.008-3.923.005-5.886.005z" fill="#7F7F7F"/><g fill-rule="evenodd" clip-rule="evenodd" fill="#3DBAE7"><path d="M15.387 20.358c.958.971 1.892 1.932 2.376 3.227.533 1.418-.344 2.852-1.633 3.243-1.419.433-2.888-.406-3.227-1.819-.154-.649-.035-1.264.262-1.848.547-1.075 1.34-1.954 2.222-2.803zM11.144 17.444c.501.434.855.976 1.156 1.555.117.221.225.453.295.691.296 1.007-.508 1.966-1.551 1.866-.822-.079-1.354-.572-1.459-1.362-.045-.341.086-.647.229-.943.33-.683.807-1.258 1.33-1.807zM15.555 15.374c.29.437.605.827.828 1.264.322.636.035 1.297-.594 1.468-.428.118-.807.012-1.1-.329-.271-.311-.307-.661-.141-1.037.223-.507.544-.943 1.007-1.366z"/></g></svg><svg xmlns:xlink="http://www.w3.org/1999/xlink" height="30" width="30" y="390"><path d="M25.2 11.6c-2.8 0-5.101-2.3-5.101-5.1 0-.9.2-1.8.601-2.5-2.8 0-5.2 1.9-6.101 4.4.501.1 1.101.3 1.601.6 1.6.9 2.7 2.2 3.2 4 0 .1.1.2.199.2.9 0 1.7.1 2.5.5.801.4 1.5 1 2 1.7.101.1.101.2.2.2 1.4-1 2.4-2.5 2.7-4.3-.599.2-1.199.3-1.799.3z" fill="#BFBFBF"/><path fill-rule="evenodd" clip-rule="evenodd" d="M13.749 24.164h-5.857c-.707 0-1.397-.096-2.064-.347-1.409-.531-2.463-1.456-3.097-2.826-.779-1.685-.765-3.375.126-5.008.751-1.378 1.906-2.289 3.44-2.687.159-.042.223-.113.261-.27.231-.958.649-1.829 1.289-2.586.985-1.165 2.207-1.954 3.712-2.26 1.615-.329 3.173-.151 4.623.661 1.63.914 2.734 2.262 3.221 4.085.039.143.101.175.234.171.887-.019 1.738.127 2.544.513.829.396 1.511.971 2.069 1.694.888 1.147 1.213 2.456 1.072 3.885-.247 2.502-2.175 4.532-4.645 4.899-.344.051-.694.069-1.042.071-1.961.008-3.923.005-5.886.005z" fill="#7F7F7F"/><path fill-rule="evenodd" clip-rule="evenodd" d="M10.595 19.858c.958.971 1.892 1.932 2.377 3.227.532 1.418-.345 2.852-1.634 3.243-1.419.433-2.888-.406-3.227-1.819-.154-.649-.035-1.264.262-1.848.547-1.075 1.34-1.954 2.222-2.803z" fill="#3DBAE7"/><path fill-rule="evenodd" clip-rule="evenodd" d="M18.38 20.23l-.06.083-1.584 1.583c-.269.268-.67.206-.837-.125-.089-.174-.066-.39.07-.527l1.313-1.313.422-.426h-2.3859999999999997c-.25 0-.453-.155-.506-.383-.055-.23.052-.478.266-.577.086-.039.19-.054.286-.055.735-.004 1.47-.001 2.205-.001h.124l-.085-.089c-.534-.534-1.062-1.073-1.604-1.601-.289-.282-.146-.76.236-.855.156-.039.304-.008.432.096l.086.08 1.57 1.571.081.074v-2.374c0-.365.344-.618.681-.498.198.072.306.225.331.434l.003.136v2.321l.083-.077 1.579-1.588c.111-.11.236-.19.402-.188.293.002.514.246.489.54-.012.146-.069.264-.172.365l-1.567 1.564-.082.089h2.338c.258 0 .449.125.524.337.118.341-.122.678-.487.679h-2.383l.074.081 1.601 1.602c.255.255.189.679-.126.828-.182.085-.358.063-.519-.059l-.086-.081-1.575-1.58-.059-.084-.035.019v.095l.001 2.256c.002.209-.071.377-.256.484-.331.191-.755-.053-.76-.443v-2.3720000000000003l-.028-.021z" fill="#fff"/></svg><svg xmlns:xlink="http://www.w3.org/1999/xlink" height="30" width="30" y="420"><path d="M25.8 9.3c-2.8 0-5.1-2.3-5.1-5.1 0-.9.2-1.8.6-2.5-2.8 0-5.2 1.9-6.1 4.4.5.1 1.1.3 1.6.6 1.601.9 2.7 2.2 3.2 4 0 .1.1.2.2.2.899 0 1.7.1 2.5.5s1.5 1 2 1.7c.1.1.1.2.2.2 1.4-1 2.4-2.5 2.7-4.3-.6.1-1.2.3-1.8.3z" fill="#BFBFBF"/><path fill-rule="evenodd" clip-rule="evenodd" d="M14.415 21.872h-5.857c-.707 0-1.397-.096-2.064-.347-1.409-.531-2.463-1.456-3.097-2.826-.779-1.685-.765-3.375.126-5.008.751-1.378 1.906-2.289 3.44-2.687.159-.042.223-.113.261-.27.231-.958.649-1.829 1.289-2.586.985-1.165 2.207-1.954 3.712-2.26 1.615-.329 3.173-.151 4.623.661 1.63.914 2.734 2.262 3.221 4.085.039.143.101.175.234.171.887-.019 1.738.127 2.544.513.829.396 1.511.971 2.069 1.694.888 1.147 1.213 2.456 1.072 3.885-.247 2.502-2.175 4.532-4.645 4.899-.344.051-.694.069-1.042.071-1.961.008-3.923.005-5.886.005z" fill="#7F7F7F"/><g fill="#CECECE"><circle cx="16.957" r="1.13" cy="25.343"/><circle cx="13.127" r="1.13" cy="26.787"/><circle cx="11.033" r="1.13" cy="24.231"/><circle cx="7.098" r="1.131" cy="25.554"/><circle cx="18.699" r="1.13" cy="21.558"/><circle cx="14.87" r="1.13" cy="23.002"/><circle cx="12.776" r="1.13" cy="20.446"/><circle cx="8.841" r="1.13" cy="21.77"/><circle cx="20.472" r="1.13" cy="17.429"/><circle cx="16.644" r="1.13" cy="18.874"/><circle cx="14.55" r="1.13" cy="16.318"/><circle cx="10.614" r="1.13" cy="17.642"/></g></svg><svg xmlns:xlink="http://www.w3.org/1999/xlink" height="30" width="30" y="450"><path d="M25.8 12.1c-2.8 0-5.1-2.3-5.1-5.1 0-.9.2-1.8.6-2.5-2.8 0-5.2 1.9-6.1 4.4.5.1 1.1.3 1.6.6 1.601.9 2.7 2.2 3.2 4 0 .1.1.2.2.2.899 0 1.7.1 2.5.5s1.5 1 2 1.7c.1.1.1.2.2.2 1.399-1 2.399-2.5 2.699-4.3-.599.2-1.199.3-1.799.3z" fill="#BFBFBF"/><path fill-rule="evenodd" clip-rule="evenodd" d="M14.498 24.664h-5.857c-.707 0-1.397-.096-2.064-.347-1.409-.531-2.463-1.456-3.097-2.826-.779-1.685-.765-3.375.126-5.008.751-1.378 1.906-2.289 3.44-2.687.159-.042.223-.113.261-.27.231-.958.649-1.829 1.289-2.586.985-1.165 2.207-1.954 3.712-2.26 1.615-.329 3.173-.151 4.623.661 1.63.914 2.734 2.262 3.221 4.085.039.143.101.175.234.171.887-.019 1.738.127 2.544.513.829.396 1.511.971 2.069 1.694.888 1.147 1.213 2.456 1.072 3.885-.247 2.502-2.175 4.532-4.645 4.899-.344.051-.694.069-1.042.071-1.961.008-3.923.005-5.886.005z" fill="#7F7F7F"/><path fill-rule="evenodd" clip-rule="evenodd" d="M19.589 20.688l-.06.083-1.584 1.583c-.269.268-.67.206-.837-.125-.089-.174-.066-.39.07-.527l1.313-1.313.422-.426h-2.3859999999999997c-.25 0-.453-.155-.506-.383-.055-.23.052-.478.266-.577.086-.039.19-.054.286-.055.735-.004 1.47-.001 2.205-.001h.124l-.085-.089c-.534-.534-1.062-1.073-1.604-1.601-.289-.282-.146-.76.236-.855.156-.039.304-.008.432.096l.086.08 1.57 1.571.081.074v-2.374c0-.365.344-.618.681-.498.198.072.306.225.331.434l.003.136v2.321l.083-.077 1.579-1.588c.111-.11.236-.19.402-.188.293.002.514.246.489.54-.012.146-.069.264-.172.365l-1.567 1.564-.082.089h2.338c.258 0 .449.125.524.337.118.341-.122.678-.487.679h-2.383l.074.081 1.601 1.602c.255.255.189.679-.126.828-.182.085-.358.063-.519-.059l-.086-.081-1.575-1.58-.059-.084-.035.019v.095l.001 2.256c.002.209-.071.377-.256.484-.331.191-.755-.053-.76-.443v-2.3720000000000003l-.028-.021z" fill="#fff"/></svg><svg xmlns:xlink="http://www.w3.org/1999/xlink" height="30" width="30" y="480"><path d="M25.8 12.4c-2.8 0-5.1-2.3-5.1-5.1 0-.9.2-1.8.6-2.5-2.8 0-5.2 1.9-6.1 4.4.5.1 1.1.3 1.6.6 1.601.9 2.7 2.2 3.2 4 0 .1.1.2.2.2.899 0 1.7.1 2.5.5s1.5 1 2 1.7c.1.1.1.2.2.2 1.399-1 2.399-2.5 2.699-4.3-.599.2-1.199.3-1.799.3z" fill="#BFBFBF"/><path fill-rule="evenodd" clip-rule="evenodd" d="M14.457 25.08h-5.857c-.707 0-1.397-.096-2.064-.347-1.409-.531-2.463-1.456-3.097-2.826-.779-1.685-.765-3.375.126-5.008.751-1.378 1.906-2.289 3.44-2.687.159-.042.223-.113.261-.27.231-.958.649-1.829 1.289-2.586.985-1.165 2.207-1.954 3.712-2.26 1.615-.329 3.173-.151 4.623.661 1.63.914 2.734 2.262 3.221 4.085.039.143.101.175.234.171.887-.019 1.738.127 2.544.513.829.396 1.511.971 2.069 1.694.888 1.147 1.213 2.456 1.072 3.885-.247 2.502-2.175 4.532-4.645 4.899-.344.051-.694.069-1.042.071-1.961.008-3.923.005-5.886.005z" fill="#7F7F7F"/><g fill-rule="evenodd" clip-rule="evenodd" fill="#fff"><path d="M19.588 21.022l-.06.083-1.584 1.583c-.269.268-.67.206-.837-.125-.089-.174-.066-.39.07-.527l1.313-1.313.422-.426h-2.3859999999999997c-.25 0-.453-.155-.506-.383-.055-.23.052-.478.266-.577.086-.039.19-.054.286-.055.735-.004 1.47-.001 2.205-.001h.124l-.085-.089c-.534-.534-1.062-1.073-1.604-1.601-.289-.282-.146-.76.236-.855.156-.039.304-.008.432.096l.086.08 1.57 1.571.081.074v-2.374c0-.365.344-.618.681-.498.198.072.306.225.331.434l.003.136v2.321l.083-.077 1.579-1.588c.111-.11.236-.19.402-.188.293.002.514.246.489.54-.012.146-.069.264-.172.365l-1.567 1.564-.082.089h2.338c.258 0 .449.125.524.337.118.341-.122.678-.487.679h-2.383l.074.081 1.601 1.602c.255.255.189.679-.126.828-.182.085-.358.063-.519-.059l-.086-.081-1.575-1.58-.059-.084-.035.019v.095l.001 2.256c.002.209-.071.377-.256.484-.331.191-.755-.053-.76-.443v-2.3720000000000003l-.028-.021zM11.965 22.163l-.036.05-.961.961c-.163.162-.407.125-.508-.076-.054-.105-.041-.236.042-.319l.797-.798.255-.258h-1.447c-.152 0-.275-.095-.307-.232-.033-.14.031-.29.161-.351l.174-.033h1.4140000000000001l-.053-.055-.973-.972c-.175-.171-.088-.461.144-.519.095-.023.184-.005.262.058l.052.049.953.954.05.045v-1.4409999999999998c0-.222.208-.375.413-.302.12.044.186.136.201.263l.002.083v1.4080000000000001l.05-.047.958-.963c.068-.067.145-.116.244-.115.178.002.312.149.297.328-.006.089-.041.16-.104.222l-.951.949-.051.055h1.42c.156 0 .272.075.318.204.071.207-.074.411-.296.412h-1.4460000000000002l.045.049.972.973c.154.154.114.412-.077.502-.109.052-.217.039-.314-.035l-.052-.049-.956-.959-.035-.052-.021.012v1.427c.002.127-.043.229-.155.294-.2.116-.458-.032-.461-.27v-1.44l-.02-.012z"/></g></svg><svg xmlns:xlink="http://www.w3.org/1999/xlink" height="30" width="30" y="510"><path d="M25.6 9.3c-2.8 0-5.1-2.3-5.1-5.1 0-.9.2-1.8.6-2.5-2.8 0-5.199 1.9-6.1 4.4.5.1 1.1.3 1.6.6 1.601.9 2.7 2.2 3.2 4 0 .1.101.2.2.2.9 0 1.7.1 2.5.5s1.5 1 2 1.7c.1.1.1.2.2.2 1.399-1 2.399-2.5 2.7-4.3-.5.1-1.1.3-1.8.3z" fill="#BFBFBF"/><path fill-rule="evenodd" clip-rule="evenodd" d="M14.248 21.872h-5.857c-.707 0-1.397-.096-2.064-.347-1.41-.531-2.463-1.456-3.097-2.825-.779-1.685-.765-3.375.126-5.008.751-1.378 1.906-2.289 3.44-2.687.159-.042.223-.113.261-.27.231-.958.649-1.829 1.289-2.586.985-1.165 2.207-1.954 3.712-2.26 1.615-.329 3.173-.151 4.623.661 1.63.914 2.734 2.262 3.221 4.085.039.143.101.175.234.171.887-.019 1.738.127 2.544.513.829.396 1.511.971 2.069 1.694.888 1.147 1.213 2.456 1.072 3.885-.247 2.502-2.175 4.532-4.645 4.899-.344.051-.694.069-1.042.071-1.961.007-3.923.004-5.886.004z" fill="#7F7F7F"/><path fill-rule="evenodd" clip-rule="evenodd" d="M19.243 19.17c.736 0 1.436-.002 2.132.004l.256.064-.093.25c-1.765 2.616-3.535 5.228-5.297 7.846-.109.162-.223.231-.428.165l2.539-6.629-.242-.012h-1.816c-.361 0-.391-.042-.266-.375.545-1.453 1.092-2.906 1.639-4.358.163-.435.332-.867.486-1.305.064-.177.17-.25.357-.25l2.873.002c.289 0 .316.053.175.315l-2.212 4.079-.103.204z" fill="#EFC319"/><g fill-rule="evenodd" clip-rule="evenodd" fill="#3DBAE7"><path d="M11.054 18.691c.959.971 1.893 1.932 2.377 3.227.533 1.418-.344 2.852-1.633 3.243-1.42.433-2.889-.406-3.227-1.819-.154-.649-.035-1.264.262-1.848.547-1.074 1.34-1.954 2.221-2.803zM6.812 15.777c.5.434.855.976 1.156 1.555.117.221.225.453.295.691.295 1.007-.508 1.966-1.551 1.866-.822-.079-1.355-.572-1.459-1.362-.045-.341.086-.647.229-.943.33-.683.806-1.258 1.33-1.807zM11.222 13.707c.291.437.605.827.828 1.264.322.636.035 1.297-.594 1.468-.428.118-.807.012-1.1-.329-.271-.311-.307-.661-.141-1.037.223-.507.544-.942 1.007-1.366z"/></g></svg><svg xmlns:xlink="http://www.w3.org/1999/xlink" height="30" width="30" y="540"><path fill-rule="evenodd" clip-rule="evenodd" d="M14.694 22.831h-5.766c-.696 0-1.375-.095-2.032-.341-1.387-.523-2.425-1.434-3.049-2.783-.767-1.659-.753-3.322.124-4.931.74-1.356 1.877-2.254 3.387-2.646.156-.041.219-.111.256-.265.229-.944.64-1.801 1.27-2.546.971-1.147 2.173-1.923 3.654-2.225 1.59-.324 3.124-.149 4.552.651 1.605.899 2.693 2.227 3.171 4.022.038.141.099.172.231.169.872-.02 1.712.125 2.504.505.817.39 1.487.956 2.038 1.667.875 1.13 1.194 2.419 1.055 3.826-.243 2.464-2.141 4.462-4.572 4.824-.339.05-.683.068-1.026.069-1.931.007-3.863.004-5.797.004zm.022-1.885c1.938 0 3.875.003 5.813-.003.284-.001.575-.019.855-.072 1.672-.317 3.143-1.959 2.867-3.982-.23-1.686-1.727-3.042-3.433-3.077-.625-.012-1.251-.005-1.877-.004-.15 0-.223-.058-.237-.213l-.085-.64c-.131-1.115-.578-2.074-1.395-2.85-1.194-1.137-2.617-1.509-4.223-1.228-.832.146-1.555.531-2.183 1.091-.691.615-1.178 1.363-1.391 2.269-.102.427-.155.866-.221 1.3-.018.115-.07.168-.185.184-.315.04-.631.079-.943.135-.851.154-1.539.582-2.096 1.241-1.2 1.417-1.046 3.627.327 4.877.732.667 1.583.973 2.561.973l5.846-.001z" fill="#7F7F7F"/></svg><svg xmlns:xlink="http://www.w3.org/1999/xlink" height="30" width="30" y="570"><path fill-rule="evenodd" clip-rule="evenodd" d="M14.707 23.456h-5.857c-.707 0-1.397-.096-2.064-.348-1.409-.531-2.463-1.455-3.097-2.825-.779-1.685-.765-3.374.126-5.009.751-1.378 1.906-2.289 3.44-2.687.159-.042.223-.113.261-.27.231-.958.649-1.829 1.289-2.586.985-1.165 2.207-1.954 3.712-2.26 1.615-.329 3.173-.151 4.623.661 1.63.914 2.734 2.262 3.221 4.085.039.143.101.175.234.171.887-.019 1.738.127 2.544.513.829.396 1.511.971 2.069 1.694.888 1.147 1.213 2.456 1.072 3.886-.247 2.502-2.175 4.531-4.645 4.898-.344.051-.694.069-1.042.071-1.961.009-3.923.006-5.886.006z" fill="#7F7F7F"/></svg><svg xmlns:xlink="http://www.w3.org/1999/xlink" height="30" width="30" y="600"><path fill-rule="evenodd" clip-rule="evenodd" d="M20.037 11.201l-.809.003c-.193.006-.276-.077-.307-.271-.068-.469-.122-.943-.244-1.399-.353-1.309-1.154-2.271-2.333-2.88-1.363-.706-2.787-.778-4.18-.123-1.579.742-2.51 2.016-2.734 3.791-.026.199-.068.398-.072.599-.004.206-.118.239-.281.268-.467.079-.946.122-1.394.269-1.554.505-2.577 2.226-2.356 3.868.196 1.458.974 2.459 2.294 3.018.326.14.698.176 1.052.237.151.025.214.087.214.232v1.406c.002.195-.097.24-.271.231-.909-.053-1.754-.319-2.536-.785-1.401-.832-2.269-2.075-2.589-3.677-.6-3.006 1.276-5.715 3.893-6.427.215-.059.296-.159.354-.37.685-2.498 2.27-4.142 4.719-4.797 3.053-.816 6.062.581 7.53 3.328.231.433.381.912.537 1.38.059.176.121.236.303.232 1.485-.03 2.783.468 3.872 1.49.957.898 1.506 2.029 1.667 3.337.242 1.97-.372 3.637-1.829 4.961-.936.852-2.052 1.279-3.309 1.329-.197.008-.266-.073-.263-.266.007-.44.007-.88 0-1.319-.003-.184.053-.267.249-.29 1.372-.158 2.391-.874 3.003-2.12.701-1.423.366-3.092-.759-4.202-.751-.742-1.651-1.056-2.68-1.054l-.741.001z" fill="#7F7F7F"/><g fill="#CECECE"><path d="M15.9 26.9c0 .5-.4.9-1 .9-.5 0-.9-.4-.9-.9s.4-1 .9-1 1 .5 1 1zM18.6 25.7c-.5 0-1-.399-1-.899s.4-.9.9-.9.9.4.9.9c.1.399-.3.899-.8.899zM15.9 22.801c0 .5-.4.899-1 .899-.5 0-.9-.399-.9-.899s.4-.9.9-.9c.5-.1 1 .4 1 .9zM15.9 18.218c0 .5-.4.899-1 .899-.5 0-.9-.399-.9-.899s.4-.9.9-.9c.5-.1 1 .4 1 .9zM8.734 26.9c0 .5-.4.9-1 .9-.5 0-.9-.4-.9-.9s.4-1 .9-1 1 .5 1 1zM11.433 25.7c-.5 0-1-.399-1-.899s.4-.9.9-.9.9.4.9.9c.1.399-.3.899-.8.899zM23.15 26.9c0 .5-.4.9-1 .9-.5 0-.9-.4-.9-.9s.4-1 .9-1 1 .5 1 1zM23.15 22.801c0 .5-.4.899-1 .899-.5 0-.9-.399-.9-.899s.4-.9.9-.9c.5-.1 1 .4 1 .9zM8.734 22.801c0 .5-.4.899-1 .899-.5 0-.9-.399-.9-.899s.4-.9.9-.9c.5-.1 1 .4 1 .9zM19.5 20.467c0 .5-.4.899-.9.899s-1-.399-1-.899.4-.9.9-.9c.6-.001 1 .4 1 .9zM10.4 20.467c0-.5.4-.9.9-.9s.9.4.9 1c0 .5-.4.9-1 .9-.5-.101-.9-.5-.8-1z"/></g></svg><svg xmlns:xlink="http://www.w3.org/1999/xlink" height="30" width="30" y="630"><path fill-rule="evenodd" clip-rule="evenodd" d="M19.418 13.202c-.265 0-.531-.007-.796.003-.19.006-.273-.074-.303-.264-.067-.455-.12-.916-.241-1.357-.348-1.27-1.137-2.205-2.299-2.796-1.345-.685-2.748-.754-4.121-.118-1.557.721-2.475 1.956-2.695 3.679-.025.193-.066.387-.07.581-.004.2-.116.233-.277.26-.46.077-.933.119-1.373.26-1.533.49-2.541 2.161-2.324 3.756.193 1.414.961 2.386 2.263 2.929.321.134.688.17 1.037.229.148.025.21.085.21.227l.002 1.363c.002.189-.096.234-.268.225-.896-.051-1.729-.309-2.5-.76-1.381-.809-2.236-2.015-2.551-3.57-.593-2.917 1.258-5.546 3.836-6.236.213-.058.293-.154.35-.359.675-2.425 2.238-4.02 4.652-4.656 3.01-.792 5.975.562 7.424 3.23.228.42.374.885.529 1.34.058.17.119.229.298.225 1.465-.028 2.744.454 3.817 1.446.944.872 1.484 1.97 1.644 3.238.238 1.913-.367 3.529-1.803 4.815-.923.826-2.023 1.242-3.263 1.29-.193.008-.262-.071-.259-.259.008-.426.008-.854 0-1.279-.003-.178.052-.26.245-.281 1.354-.154 2.357-.848 2.961-2.059.691-1.381.361-3-.748-4.078-.74-.72-1.628-1.025-2.642-1.022l-.735-.002z" fill="#7F7F7F"/><path fill-rule="evenodd" clip-rule="evenodd" d="M14.512 18.358c.958.971 1.892 1.932 2.376 3.227.533 1.418-.344 2.852-1.633 3.243-1.419.433-2.888-.406-3.227-1.819-.154-.649-.035-1.264.262-1.848.547-1.074 1.34-1.954 2.222-2.803z" fill="#3DBAE7"/></svg><svg xmlns:xlink="http://www.w3.org/1999/xlink" height="30" width="30" y="660"><path fill-rule="evenodd" clip-rule="evenodd" d="M14.957 21.622h-5.857c-.707 0-1.397-.096-2.064-.348-1.409-.531-2.463-1.455-3.097-2.825-.779-1.685-.765-3.374.126-5.009.751-1.378 1.906-2.289 3.44-2.687.159-.042.223-.113.261-.27.231-.958.649-1.829 1.289-2.586.985-1.165 2.207-1.954 3.712-2.26 1.615-.327 3.173-.15 4.623.663 1.63.914 2.734 2.262 3.221 4.086.039.143.101.174.234.171.887-.019 1.738.128 2.544.513.829.396 1.511.971 2.069 1.694.888 1.147 1.213 2.456 1.072 3.886-.247 2.502-2.175 4.531-4.645 4.898-.344.051-.694.069-1.042.071-1.961.006-3.923.003-5.886.003z" fill="#7F7F7F"/><g fill-rule="evenodd" clip-rule="evenodd" fill="#3DBAE7"><path d="M16.096 18.566c.958.971 1.892 1.932 2.377 3.227.532 1.418-.345 2.852-1.634 3.243-1.419.433-2.888-.406-3.227-1.819-.154-.649-.035-1.264.262-1.848.547-1.074 1.34-1.954 2.222-2.803zM11.853 15.652c.501.434.855.976 1.156 1.555.117.221.225.453.295.691.296 1.007-.508 1.966-1.551 1.866-.822-.079-1.354-.572-1.459-1.362-.045-.341.086-.647.229-.943.33-.683.806-1.258 1.33-1.807zM16.264 13.582c.29.437.604.827.827 1.264.322.636.035 1.297-.594 1.468-.428.118-.807.012-1.1-.329-.271-.311-.307-.661-.141-1.037.223-.507.545-.942 1.008-1.366z"/></g></svg><svg xmlns:xlink="http://www.w3.org/1999/xlink" height="30" width="30" y="690"><path fill-rule="evenodd" clip-rule="evenodd" d="M15.082 21.414h-5.857c-.707 0-1.397-.096-2.064-.348-1.409-.531-2.463-1.455-3.097-2.825-.779-1.685-.765-3.374.126-5.009.751-1.378 1.906-2.289 3.44-2.687.159-.042.223-.113.261-.27.232-.957.65-1.828 1.289-2.585.985-1.165 2.207-1.954 3.712-2.26 1.615-.329 3.173-.151 4.623.661 1.63.914 2.734 2.262 3.221 4.086.039.143.101.174.234.171.887-.019 1.738.128 2.544.513.829.396 1.511.971 2.069 1.694.888 1.147 1.213 2.456 1.072 3.886-.247 2.502-2.175 4.531-4.645 4.898-.344.051-.694.069-1.042.071-1.961.007-3.923.004-5.886.004z" fill="#7F7F7F"/><path fill-rule="evenodd" clip-rule="evenodd" d="M11.846 17.107c.958.971 1.892 1.932 2.377 3.227.532 1.418-.345 2.852-1.634 3.243-1.419.433-2.888-.406-3.227-1.819-.154-.649-.035-1.264.262-1.848.547-1.074 1.34-1.954 2.222-2.803z" fill="#3DBAE7"/><path fill-rule="evenodd" clip-rule="evenodd" d="M19.714 17.396l-.06.083-1.584 1.583c-.269.268-.67.206-.837-.125-.089-.174-.066-.39.07-.527l1.313-1.313.422-.426h-2.3859999999999997c-.25 0-.453-.155-.506-.383-.055-.23.052-.478.266-.577.086-.039.19-.054.286-.055.735-.004 1.47-.001 2.205-.001h.124l-.085-.089c-.534-.534-1.062-1.073-1.604-1.601-.289-.282-.146-.76.236-.855.156-.039.304-.008.432.096l.086.08 1.57 1.571.081.074v-2.374c0-.365.344-.618.681-.498.198.072.306.225.331.434l.003.136v2.321l.083-.077 1.579-1.588c.111-.11.236-.19.402-.188.293.002.514.246.489.54-.012.146-.069.264-.172.365l-1.567 1.564-.082.089h2.338c.258 0 .449.125.524.337.118.341-.122.678-.487.679h-2.383l.074.081 1.601 1.602c.255.255.189.679-.126.828-.182.085-.358.063-.519-.059l-.086-.081-1.575-1.58-.059-.084-.035.019v.095l.001 2.256c.002.209-.071.377-.256.484-.331.191-.755-.053-.76-.443v-2.3720000000000003l-.028-.021z" fill="#fff"/></svg><svg xmlns:xlink="http://www.w3.org/1999/xlink" height="30" width="30" y="720"><path fill-rule="evenodd" clip-rule="evenodd" d="M14.415 20.539h-5.857c-.707 0-1.397-.096-2.063-.347-1.41-.531-2.463-1.456-3.098-2.826-.778-1.684-.765-3.374.127-5.008.75-1.379 1.905-2.289 3.439-2.688.158-.041.223-.113.262-.27.23-.958.648-1.828 1.289-2.586.984-1.164 2.207-1.953 3.711-2.26 1.615-.328 3.174-.15 4.623.662 1.63.914 2.734 2.262 3.221 4.085.039.143.101.175.234.171.887-.019 1.738.128 2.544.514.829.396 1.511.971 2.069 1.693.888 1.148 1.213 2.457 1.072 3.886-.247 2.502-2.175 4.532-4.645 4.899-.344.051-.694.068-1.042.07-1.961.008-3.923.005-5.886.005z" fill="#7F7F7F"/><g fill="#CECECE"><circle cx="16.957" r="1.13" cy="24.01"/><circle cx="13.127" r="1.13" cy="25.454"/><circle cx="11.033" r="1.13" cy="22.897"/><circle cx="7.098" r="1.131" cy="24.222"/><circle cx="18.699" r="1.13" cy="20.225"/><circle cx="14.87" r="1.13" cy="21.669"/><circle cx="12.776" r="1.13" cy="19.113"/><circle cx="8.841" r="1.13" cy="20.437"/><circle cx="20.472" r="1.13" cy="16.097"/><circle cx="16.644" r="1.13" cy="17.541"/><circle cx="14.55" r="1.13" cy="14.985"/><circle cx="10.614" r="1.13" cy="16.309"/></g></svg><svg xmlns:xlink="http://www.w3.org/1999/xlink" height="30" width="30" y="750"><path fill-rule="evenodd" clip-rule="evenodd" d="M14.873 22.914h-5.857c-.707 0-1.397-.096-2.064-.348-1.409-.531-2.463-1.455-3.097-2.825-.779-1.685-.765-3.374.126-5.009.751-1.378 1.906-2.289 3.44-2.687.159-.042.223-.113.261-.27.231-.958.649-1.829 1.289-2.586.985-1.165 2.207-1.954 3.712-2.26 1.615-.329 3.173-.151 4.623.661 1.629.914 2.734 2.262 3.221 4.086.039.143.1.174.234.171.887-.019 1.738.128 2.543.513.83.396 1.512.971 2.07 1.694.887 1.147 1.213 2.456 1.072 3.886-.248 2.502-2.176 4.531-4.645 4.898-.344.051-.695.069-1.043.071-1.959.008-3.922.005-5.885.005z" fill="#7F7F7F"/><path fill-rule="evenodd" clip-rule="evenodd" d="M20.006 18.772l-.06.083-1.584 1.583c-.269.268-.67.206-.837-.125-.089-.174-.066-.39.07-.527l1.313-1.313.422-.426h-2.3859999999999997c-.25 0-.453-.155-.506-.383-.055-.23.052-.478.266-.577.086-.039.19-.054.286-.055.735-.004 1.47-.001 2.205-.001h.124l-.085-.089c-.534-.534-1.062-1.073-1.604-1.601-.289-.282-.146-.76.236-.855.156-.039.304-.008.432.096l.086.08 1.57 1.571.081.074v-2.374c0-.365.344-.618.681-.498.198.072.306.225.331.434l.003.136v2.321l.083-.077 1.579-1.588c.111-.11.236-.19.402-.188.293.002.514.246.489.54-.012.146-.069.264-.172.365l-1.567 1.564-.082.089h2.338c.258 0 .449.125.524.337.118.341-.122.678-.487.679h-2.383l.074.081 1.601 1.602c.255.255.189.679-.126.828-.182.085-.358.063-.519-.059l-.086-.081-1.575-1.58-.059-.084-.035.019v.095l.001 2.256c.002.209-.071.377-.256.484-.331.191-.755-.053-.76-.443v-2.3720000000000003l-.028-.021z" fill="#fff"/></svg><svg xmlns:xlink="http://www.w3.org/1999/xlink" height="30" width="30" y="780"><path fill-rule="evenodd" clip-rule="evenodd" d="M15.04 23.664h-5.857c-.707 0-1.397-.096-2.064-.348-1.409-.531-2.463-1.455-3.097-2.825-.779-1.685-.765-3.374.126-5.009.751-1.378 1.906-2.289 3.44-2.687.159-.042.223-.113.261-.27.231-.958.649-1.829 1.289-2.586.985-1.165 2.207-1.954 3.712-2.26 1.615-.329 3.173-.151 4.623.661 1.63.914 2.734 2.262 3.221 4.086.039.143.101.174.234.171.887-.019 1.738.128 2.544.513.829.396 1.511.971 2.069 1.694.888 1.147 1.213 2.456 1.072 3.886-.247 2.502-2.175 4.531-4.645 4.898-.344.051-.694.069-1.042.071-1.961.008-3.923.005-5.886.005z" fill="#7F7F7F"/><g fill-rule="evenodd" clip-rule="evenodd" fill="#fff"><path d="M20.172 19.688l-.06.083-1.584 1.583c-.269.268-.67.206-.837-.125-.089-.174-.066-.39.07-.527l1.313-1.313.422-.426h-2.3859999999999997c-.25 0-.453-.155-.506-.383-.055-.23.052-.478.266-.577.086-.039.19-.054.286-.055.735-.004 1.47-.001 2.205-.001h.124l-.085-.089c-.534-.534-1.062-1.073-1.604-1.601-.289-.282-.146-.76.236-.855.156-.039.304-.008.432.096l.086.08 1.57 1.571.081.074v-2.374c0-.365.344-.618.681-.498.198.072.306.225.331.434l.003.136v2.321l.083-.077 1.579-1.588c.111-.11.236-.19.402-.188.293.002.514.246.489.54-.012.146-.069.264-.172.365l-1.567 1.564-.082.089h2.338c.258 0 .449.125.524.337.118.341-.122.678-.487.679h-2.383l.074.081 1.601 1.602c.255.255.189.679-.126.828-.182.085-.358.063-.519-.059l-.086-.081-1.575-1.58-.059-.084-.035.019v.095l.001 2.256c.002.209-.071.377-.256.484-.331.191-.755-.053-.76-.443v-2.3720000000000003l-.028-.021zM12.549 20.829l-.036.05-.961.961c-.163.162-.407.125-.508-.076-.054-.105-.041-.236.042-.319l.797-.798.256-.258h-1.448c-.152 0-.275-.095-.307-.232-.033-.14.031-.29.161-.351l.174-.033h1.413l-.052-.055-.973-.972c-.175-.171-.088-.461.144-.519.095-.023.184-.005.262.058l.052.049.953.954.049.045v-1.4409999999999998c0-.222.208-.375.413-.302.12.044.186.136.201.263l.002.083v1.4080000000000001l.05-.047.958-.963c.067-.067.144-.116.244-.115.178.002.312.149.297.328-.007.089-.042.16-.104.222l-.952.949-.05.055h1.42c.156 0 .272.075.318.204.072.207-.074.411-.295.412h-1.4460000000000002l.045.049.972.973c.154.154.115.412-.077.502-.11.052-.218.039-.315-.035l-.052-.049-.956-.959-.036-.052-.021.012v1.427c.001.127-.043.229-.155.294-.201.116-.458-.032-.461-.27v-1.44l-.018-.012z"/></g></svg><svg xmlns:xlink="http://www.w3.org/1999/xlink" height="30" width="30" y="810"><path fill-rule="evenodd" clip-rule="evenodd" d="M14.54 20.456h-5.857c-.707 0-1.397-.096-2.064-.348-1.409-.531-2.463-1.455-3.097-2.825-.779-1.685-.765-3.374.126-5.009.751-1.378 1.906-2.289 3.44-2.687.159-.042.223-.113.261-.27.232-.957.65-1.828 1.29-2.585.985-1.165 2.207-1.954 3.712-2.26 1.615-.329 3.173-.151 4.622.661 1.631.914 2.734 2.262 3.221 4.086.039.143.102.174.234.171.887-.019 1.738.128 2.545.513.828.396 1.51.971 2.068 1.694.889 1.147 1.213 2.456 1.072 3.886-.246 2.502-2.174 4.531-4.645 4.898-.344.051-.693.069-1.041.071-1.962.007-3.923.004-5.887.004z" fill="#7F7F7F"/><path fill-rule="evenodd" clip-rule="evenodd" d="M19.367 17.795c.736 0 1.436-.002 2.132.004l.256.064-.093.249c-1.765 2.616-3.535 5.228-5.297 7.847-.109.162-.223.23-.427.164.842-2.201 1.685-4.4 2.539-6.629l-.242-.012h-1.816c-.361-.001-.391-.043-.266-.375.545-1.453 1.092-2.906 1.639-4.358.163-.435.332-.867.486-1.306.064-.176.17-.25.357-.25l2.873.003c.289.001.316.053.175.315l-2.212 4.078-.104.206z" fill="#EFC319"/><g fill-rule="evenodd" clip-rule="evenodd" fill="#3DBAE7"><path d="M12.387 17.482c.958.971 1.892 1.932 2.377 3.227.532 1.418-.345 2.852-1.634 3.243-1.419.433-2.888-.406-3.227-1.819-.154-.649-.035-1.264.262-1.848.547-1.074 1.34-1.954 2.222-2.803zM8.144 14.568c.501.434.856.976 1.156 1.555.117.221.225.453.295.691.296 1.007-.508 1.966-1.551 1.866-.822-.079-1.354-.572-1.459-1.362-.045-.341.086-.647.229-.943.33-.683.807-1.258 1.33-1.807zM12.555 12.498c.29.437.604.827.827 1.264.322.636.035 1.297-.594 1.468-.428.118-.807.012-1.1-.329-.271-.311-.307-.661-.141-1.037.224-.507.545-.942 1.008-1.366z"/></g></svg><svg xmlns:xlink="http://www.w3.org/1999/xlink" height="30" width="30" y="840"><path fill-rule="evenodd" clip-rule="evenodd" d="M15.207 21.83h-5.857c-.707 0-1.397-.096-2.064-.348-1.409-.531-2.463-1.455-3.097-2.825-.779-1.685-.765-3.374.126-5.009.751-1.378 1.906-2.289 3.44-2.687.159-.042.223-.113.261-.27.231-.958.649-1.829 1.289-2.586.985-1.165 2.207-1.954 3.712-2.26 1.615-.329 3.173-.151 4.623.661 1.63.914 2.734 2.262 3.221 4.086.039.143.101.174.234.171.887-.019 1.738.128 2.544.513.829.396 1.511.971 2.069 1.694.888 1.147 1.213 2.456 1.072 3.886-.247 2.502-2.175 4.531-4.645 4.898-.344.051-.694.069-1.042.071-1.961.008-3.923.005-5.886.005z" fill="#7F7F7F"/><g fill-rule="evenodd" clip-rule="evenodd" fill="#3DBAE7"><path d="M14.465 13.87c.545.552 1.075 1.097 1.35 1.832.302.806-.195 1.619-.927 1.842-.807.245-1.641-.23-1.832-1.033-.088-.368-.021-.718.148-1.049.311-.61.761-1.109 1.261-1.592zM14.561 11.04c.165.248.344.47.47.718.184.361.021.736-.337.834-.243.066-.458.006-.624-.188-.154-.177-.174-.375-.08-.589.127-.287.308-.534.571-.775zM20.221 21.69c.959.971 1.893 1.932 2.377 3.227.533 1.418-.344 2.852-1.633 3.244-1.42.432-2.889-.406-3.227-1.82-.154-.648-.035-1.264.262-1.848.547-1.074 1.34-1.953 2.221-2.803zM15.979 18.776c.5.434.855.977 1.156 1.555.117.221.225.453.295.691.295 1.008-.508 1.967-1.551 1.867-.822-.08-1.355-.572-1.459-1.363-.045-.34.086-.646.229-.943.33-.682.806-1.258 1.33-1.807zM20.389 16.706c.291.438.605.828.828 1.264.322.637.035 1.297-.594 1.469-.428.117-.807.012-1.1-.33-.271-.311-.307-.66-.141-1.037.223-.507.544-.942 1.007-1.366zM9.47 20.017c1.016 1.028 2.005 2.043 2.515 3.413.564 1.502-.364 3.018-1.726 3.433-1.503.456-3.057-.43-3.414-1.926-.164-.687-.04-1.338.277-1.954.58-1.138 1.417-2.067 2.348-2.966zM11.26 16.984c.348.303.598.68.806 1.084.082.154.159.316.207.482.206.703-.355 1.371-1.082 1.302-.573-.056-.945-.398-1.017-.95-.031-.237.06-.451.158-.658.23-.475.564-.877.928-1.26zM18.27 13.49c.203.305.422.577.578.882.225.443.023.904-.415 1.024-.298.081-.562.007-.766-.23-.189-.217-.214-.461-.099-.724.157-.352.379-.656.702-.952z"/></g></svg><svg xmlns:xlink="http://www.w3.org/1999/xlink" height="30" width="30" y="870"><g fill="#CECECE"><path d="M17.7 8.7c0 .8-.601 1.399-1.4 1.399h-10.9c-.8.001-1.4-.599-1.4-1.399s.6-1.4 1.4-1.4h10.9c.8 0 1.4.6 1.4 1.4zM24.5 13.2c0 .8-.6 1.399-1.4 1.399h-15.8c-.8 0-1.4-.6-1.4-1.399 0-.8.6-1.4 1.4-1.4h15.7c.8-.1 1.5.6 1.5 1.4zM5 21.9c0-.801.6-1.4 1.4-1.4h17.9c.8 0 1.4.6 1.4 1.4s-.601 1.399-1.4 1.399h-17.9c-.8.101-1.4-.599-1.4-1.399zM3.7 17.5c0-.8.6-1.4 1.4-1.4h15.1c.8 0 1.399.601 1.399 1.4 0 .8-.6 1.4-1.399 1.4h-15.1c-.8.1-1.4-.6-1.4-1.4z"/></g></svg><svg xmlns:xlink="http://www.w3.org/1999/xlink" height="30" width="30" y="900"><g fill="#CECECE"><path d="M25.1 19c0 .8-.6 1.4-1.399 1.4h-13.601c-.8 0-1.4-.601-1.4-1.4 0-.8.6-1.4 1.4-1.4h13.5c.8 0 1.5.6 1.5 1.4zM19.6 14.8c0 .8-.6 1.4-1.399 1.4h-9.201c-.8 0-1.4-.601-1.4-1.4 0-.8.6-1.4 1.4-1.4h9.1c.8-.1 1.5.6 1.5 1.4zM23.4 23.5c0 .8-.601 1.4-1.4 1.4h-14.6c-.8 0-1.4-.6-1.4-1.4s.6-1.4 1.4-1.4h14.6c.8-.1 1.4.6 1.4 1.4z"/></g></svg><svg xmlns:xlink="http://www.w3.org/1999/xlink" height="30" width="30" y="930"><g fill="#EFC319"><circle cx="8.5" r="1.4" cy="7.9"/><path d="M22.3 7.9c0 .8-.6 1.4-1.4 1.4h-8.2c-.8 0-1.4-.6-1.4-1.399 0-.801.6-1.4 1.4-1.4h8.2c.7-.001 1.4.599 1.4 1.399z"/><circle cx="26.3" r="1.4" cy="12.3"/><path d="M23.5 12.3c0 .8-.6 1.4-1.4 1.4h-14.7c-.8 0-1.4-.6-1.4-1.4s.6-1.4 1.4-1.4h14.6c.8 0 1.5.6 1.5 1.4z"/><circle cx="16.6" r="1.4" cy="21.1"/><path d="M4 21.1c0-.8.6-1.4 1.4-1.4h7.7c.801 0 1.4.6 1.4 1.399 0 .801-.6 1.4-1.4 1.4h-7.7c-.8.101-1.4-.599-1.4-1.399zM18.6 21.1c0-.8.601-1.399 1.4-1.399h5.2c.8 0 1.399.6 1.399 1.399 0 .801-.6 1.4-1.399 1.4h-5.2c-.8.1-1.4-.6-1.4-1.4z"/><circle cx="23.5" r="1.4" cy="16.7"/><circle cx="19.9" r="1.4" cy="16.7"/><path d="M2.7 16.7c0-.8.6-1.4 1.4-1.4h11.7c.8 0 1.4.601 1.4 1.4 0 .8-.601 1.399-1.4 1.399h-11.7c-.8.001-1.4-.599-1.4-1.399z"/></g></svg><svg xmlns:xlink="http://www.w3.org/1999/xlink" height="30" width="30" y="960"><path fill-rule="evenodd" clip-rule="evenodd" d="M15.124 22.414h-5.857c-.707 0-1.397-.096-2.064-.348-1.409-.531-2.463-1.455-3.097-2.825-.779-1.685-.765-3.374.126-5.009.751-1.378 1.906-2.289 3.44-2.687.159-.042.223-.113.261-.27.231-.958.649-1.829 1.289-2.586.985-1.165 2.207-1.954 3.712-2.26 1.615-.329 3.173-.151 4.623.661 1.63.914 2.734 2.262 3.221 4.086.039.143.101.174.234.171.887-.019 1.738.128 2.544.513.829.396 1.511.971 2.069 1.694.888 1.147 1.213 2.456 1.072 3.886-.247 2.502-2.175 4.531-4.645 4.898-.344.051-.694.069-1.042.071-1.961.008-3.923.005-5.886.005z" fill="#7F7F7F"/><path fill-rule="evenodd" clip-rule="evenodd" d="M20.255 18.355l-.06.083-1.584 1.583c-.269.268-.67.206-.837-.125-.089-.174-.066-.39.07-.527l1.313-1.313.422-.426h-2.3859999999999997c-.25 0-.453-.155-.506-.383-.055-.23.052-.478.266-.577.086-.039.19-.054.286-.055.735-.004 1.47-.001 2.205-.001h.124l-.085-.089c-.534-.534-1.062-1.073-1.604-1.601-.289-.282-.146-.76.236-.855.156-.039.304-.008.432.096l.086.08 1.57 1.571.081.074v-2.374c0-.365.344-.618.681-.498.198.072.306.225.331.434l.003.136v2.321l.083-.077 1.579-1.588c.111-.11.236-.19.402-.188.293.002.514.246.489.54-.012.146-.069.264-.172.365l-1.567 1.564-.082.089h2.338c.258 0 .449.125.524.337.118.341-.122.678-.487.679h-2.383l.074.081 1.601 1.602c.255.255.189.679-.126.828-.182.085-.358.063-.519-.059l-.086-.081-1.575-1.58-.059-.084-.035.019v.095l.001 2.256c.002.209-.071.377-.256.484-.331.191-.755-.053-.76-.443v-2.3720000000000003l-.028-.021z" fill="#fff"/></svg><svg xmlns:xlink="http://www.w3.org/1999/xlink" height="30" width="30" y="990"><g fill="#EFC319"><path d="M15.312 11.322c.986.934 1.573 1.979 1.797 3.109.064.328 1.872-.057 3.144.839.583.417 1.479 1 2.188 2.292.8-1 1.43-2.246 1.43-3.646 0-3.1-2.4-5.6-5.601-5.6-1.699 0-3.268.838-4.268 2.037.4.201.651.403 1.31.969zM26.57 6.316c0 .199-.101.5-.2.6-.5.5-1 1.1-1.601 1.6-.3.301-.699.4-1.1.2-.6-.3-.7-1-.2-1.5l1.101-1.1.5-.5c.3-.3.6-.3 1-.2.3.2.5.5.5.9zM27.67 12.916h1.1c.5 0 .9.4.9.9s-.4.899-.9.899h-2.3c-.5 0-.899-.399-.899-.899s.399-.9.899-.9h1.2zM17.17 4.216v-1.1c0-.5.4-.9.9-.9s.899.3.899.8v2.4c0 .5-.399.9-.899.9s-.9-.4-.9-.9v-1.2zM10.469 5.316c.301 0 .5.1.701.3.199.2.5.399.699.7.4.399.4 1 0 1.3-.299.3-.9.3-1.299 0-.301-.2-.5-.5-.701-.8-.299-.301-.299-.601-.1-1 .1-.3.401-.5.7-.5zM25.67 22.316c-.2 0-.4-.101-.6-.2-.2-.2-.4-.4-.7-.601-.4-.399-.5-1-.101-1.399.4-.4 1-.4 1.4 0l.7.7c.3.3.3.6.2.899-.199.301-.499.601-.899.601z"/></g><path fill-rule="evenodd" clip-rule="evenodd" d="M16.668 16.368c-.265 0-.531-.007-.796.003-.19.006-.273-.074-.303-.264-.067-.455-.12-.916-.241-1.357-.348-1.27-1.137-2.205-2.299-2.796-1.345-.685-2.748-.754-4.121-.118-1.557.721-2.475 1.956-2.695 3.679-.025.193-.066.387-.07.581-.004.2-.116.233-.277.26-.46.077-.933.119-1.373.26-1.533.49-2.541 2.161-2.324 3.756.193 1.414.961 2.386 2.263 2.929.321.134.688.17 1.037.229.148.025.21.085.21.227l.002 1.363c.002.189-.096.234-.268.225-.896-.051-1.729-.309-2.5-.76-1.381-.809-2.236-2.015-2.551-3.57-.593-2.917 1.258-5.546 3.836-6.236.213-.058.293-.154.35-.359.675-2.425 2.238-4.02 4.652-4.656 3.01-.792 5.975.562 7.424 3.23.228.42.374.885.529 1.34.058.17.119.229.298.225 1.465-.028 2.744.454 3.817 1.446.944.872 1.484 1.97 1.644 3.238.238 1.913-.367 3.529-1.803 4.815-.923.826-2.023 1.242-3.263 1.29-.193.008-.262-.071-.259-.259.008-.426.008-.854 0-1.279-.003-.178.052-.26.245-.281 1.354-.154 2.357-.848 2.961-2.059.691-1.381.361-3-.748-4.078-.74-.72-1.628-1.025-2.642-1.022l-.735-.002z" fill="#7F7F7F"/><path fill-rule="evenodd" clip-rule="evenodd" d="M11.762 21.816c.958.971 1.892 1.932 2.377 3.227.532 1.418-.345 2.852-1.634 3.243-1.419.433-2.888-.406-3.227-1.819-.154-.649-.035-1.264.262-1.848.547-1.074 1.34-1.954 2.222-2.803z" fill="#3DBAE7"/></svg><svg xmlns:xlink="http://www.w3.org/1999/xlink" height="30" width="30" y="1020"><g fill="#EFC319"><path d="M15.643 11.934c.986.934 1.573 1.979 1.797 3.109.064.327 1.872-.058 3.144.839.583.416 1.479 1 2.188 2.291.8-1 1.43-2.245 1.43-3.646 0-3.1-2.4-5.6-5.601-5.6-1.699 0-3.268.837-4.268 2.038.399.2.649.402 1.31.969zM26.9 6.927c0 .201-.101.5-.2.601-.5.5-1 1.101-1.601 1.601-.299.298-.699.398-1.099.198-.6-.3-.7-1-.2-1.5l1.101-1.1.5-.5c.3-.301.6-.301 1-.2.299.201.499.5.499.9zM28 13.527h1.1c.5 0 .9.399.9.899s-.4.9-.9.9h-2.3c-.5 0-.899-.4-.899-.9s.399-.899.899-.899h1.2zM17.5 4.827v-1.1c0-.5.4-.9.9-.9s.9.301.9.801v2.399c0 .5-.399.9-.899.9s-.9-.4-.9-.9l-.001-1.2zM10.799 5.927c.299 0 .5.101.699.301.201.199.502.4.701.699.4.4.4 1 0 1.301-.299.3-.9.3-1.301 0-.301-.2-.5-.5-.699-.801-.301-.299-.301-.6-.102-1 .102-.299.401-.5.702-.5zM26 22.927c-.2 0-.4-.1-.6-.199-.2-.2-.4-.4-.7-.6-.4-.4-.5-1-.101-1.4.4-.4 1-.4 1.4 0l.7.699c.3.301.3.601.2.9-.199.301-.499.6-.899.6z"/></g><path fill-rule="evenodd" clip-rule="evenodd" d="M11.873 26.122h-5.857c-.707 0-1.397-.096-2.064-.348-1.409-.531-2.463-1.455-3.097-2.825-.779-1.685-.765-3.374.126-5.009.751-1.378 1.906-2.289 3.44-2.687.159-.042.223-.113.261-.27.231-.958.649-1.829 1.289-2.586.985-1.165 2.207-1.954 3.712-2.26 1.615-.329 3.173-.151 4.623.661 1.63.914 2.735 2.262 3.221 4.086.039.143.1.174.234.171.887-.019 1.738.128 2.543.513.83.396 1.512.971 2.07 1.694.887 1.147 1.213 2.456 1.072 3.886-.248 2.502-2.176 4.531-4.645 4.898-.344.051-.695.069-1.043.071-1.96.008-3.922.005-5.885.005z" fill="#7F7F7F"/><path fill-rule="evenodd" clip-rule="evenodd" d="M16.673 22.105l-.06.083-1.584 1.583c-.269.268-.67.206-.837-.125-.089-.174-.066-.39.07-.527l1.313-1.313.422-.426h-2.3859999999999997c-.25 0-.453-.155-.506-.383-.055-.23.052-.478.266-.577.086-.039.19-.054.286-.055.735-.004 1.47-.001 2.205-.001h.124l-.085-.089c-.534-.534-1.062-1.073-1.604-1.601-.289-.282-.146-.76.236-.855.156-.039.304-.008.432.096l.086.08 1.57 1.571.081.074v-2.374c0-.365.344-.618.681-.498.198.072.306.225.331.434l.003.136v2.321l.083-.077 1.579-1.588c.111-.11.236-.19.402-.188.293.002.514.246.489.54-.012.146-.069.264-.172.365l-1.567 1.564-.082.089h2.338c.258 0 .449.125.524.337.118.341-.122.678-.487.679h-2.383l.074.081 1.601 1.602c.255.255.189.679-.126.828-.182.085-.358.063-.519-.059l-.086-.081-1.575-1.58-.059-.084-.035.019v.095l.001 2.256c.002.209-.071.377-.256.484-.331.191-.755-.053-.76-.443v-2.3720000000000003l-.028-.021z" fill="#fff"/></svg><svg xmlns:xlink="http://www.w3.org/1999/xlink" height="30" width="30" y="1050"><path fill-rule="evenodd" clip-rule="evenodd" d="M14.79 20.966h-5.857c-.707 0-1.397-.096-2.064-.348-1.409-.531-2.463-1.455-3.097-2.825-.779-1.685-.765-3.374.126-5.009.751-1.378 1.906-2.289 3.44-2.687.159-.042.223-.113.261-.27.232-.957.65-1.828 1.29-2.585.985-1.165 2.207-1.954 3.712-2.26 1.615-.329 3.173-.151 4.622.661 1.631.914 2.734 2.262 3.221 4.086.039.143.102.174.234.171.887-.019 1.738.128 2.545.513.828.396 1.51.971 2.068 1.694.889 1.147 1.213 2.456 1.072 3.886-.246 2.502-2.174 4.531-4.645 4.898-.344.051-.693.069-1.041.071-1.962.007-3.923.004-5.887.004z" fill="#7F7F7F"/><path fill-rule="evenodd" clip-rule="evenodd" d="M14.989 15.965c.954 0 1.861-.003 2.766.005.111 0 .223.053.332.083-.038.109-.059.23-.122.323-2.287 3.394-4.584 6.781-6.87 10.179-.142.21-.289.299-.555.213l3.293-8.599-.314-.016h-2.356c-.469-.001-.507-.056-.345-.486.707-1.885 1.417-3.77 2.126-5.653.211-.563.431-1.125.63-1.693.084-.229.221-.324.464-.324l3.726.004c.375.001.411.068.229.408-.955 1.764-1.913 3.527-2.87 5.29l-.134.266z" fill="#EFC319"/></svg><svg xmlns:xlink="http://www.w3.org/1999/xlink" height="30" width="30" y="1080"><path d="M25.275 10.633c-2.801 0-5.101-2.3-5.101-5.1 0-.9.2-1.8.601-2.5-2.801 0-5.2 1.899-6.101 4.399.5.101 1.101.301 1.601.601 1.6.899 2.699 2.2 3.199 4 0 .1.101.2.2.2.9 0 1.7.1 2.5.5.8.399 1.5 1 2 1.699.101.101.101.2.2.2 1.4-1 2.4-2.5 2.7-4.3-.599.101-1.199.301-1.799.301z" fill="#BFBFBF"/><path fill-rule="evenodd" clip-rule="evenodd" d="M19.043 13.91c-.265 0-.531-.007-.796.003-.19.006-.273-.074-.303-.264-.067-.455-.12-.916-.241-1.357-.348-1.27-1.137-2.205-2.299-2.796-1.345-.685-2.748-.754-4.121-.118-1.557.721-2.475 1.956-2.695 3.679-.025.193-.066.387-.07.581-.004.2-.116.233-.277.26-.46.077-.933.119-1.373.26-1.533.49-2.541 2.161-2.324 3.756.193 1.414.961 2.386 2.263 2.929.321.134.688.17 1.037.229.148.025.21.085.21.227l.002 1.363c.002.189-.096.234-.268.225-.896-.051-1.729-.309-2.5-.76-1.381-.809-2.236-2.015-2.551-3.57-.593-2.917 1.258-5.546 3.836-6.236.213-.058.293-.154.35-.359.675-2.425 2.238-4.02 4.652-4.656 3.01-.792 5.975.562 7.424 3.23.228.42.374.885.529 1.34.058.17.119.229.298.225 1.465-.028 2.744.454 3.817 1.446.944.872 1.484 1.97 1.644 3.238.238 1.913-.367 3.529-1.803 4.815-.923.826-2.023 1.242-3.263 1.29-.193.008-.262-.071-.259-.259.008-.426.008-.854 0-1.279-.003-.178.052-.26.245-.281 1.354-.154 2.357-.848 2.961-2.059.691-1.381.361-3-.748-4.078-.74-.72-1.628-1.025-2.642-1.022l-.735-.002z" fill="#7F7F7F"/><g fill-rule="evenodd" clip-rule="evenodd" fill="#3DBAE7"><path d="M15.179 19.982c.958.971 1.892 1.932 2.377 3.227.532 1.418-.345 2.852-1.633 3.243-1.419.433-2.888-.406-3.227-1.819-.155-.649-.036-1.264.261-1.848.546-1.074 1.34-1.954 2.222-2.803zM10.935 17.068c.501.434.856.976 1.157 1.555.116.221.224.453.295.691.295 1.007-.509 1.966-1.552 1.866-.821-.079-1.354-.572-1.459-1.362-.045-.341.086-.647.23-.943.33-.683.807-1.258 1.329-1.807zM15.347 14.998c.29.437.604.827.827 1.264.322.636.035 1.297-.594 1.468-.427.118-.806.012-1.1-.329-.271-.311-.306-.661-.14-1.037.223-.507.544-.942 1.007-1.366z"/></g></svg><svg xmlns:xlink="http://www.w3.org/1999/xlink" height="30" width="30" y="1110"><path d="M25.7 11.433c-2.8 0-5.1-2.3-5.1-5.1 0-.9.2-1.8.6-2.5-2.8 0-5.2 1.9-6.1 4.4.5.1 1.1.3 1.6.6 1.601.9 2.7 2.2 3.2 4 0 .1.1.2.2.2.899 0 1.7.1 2.5.5.8.399 1.5 1 2 1.7.1.1.1.199.2.199 1.399-1 2.399-2.5 2.699-4.3-.599.201-1.198.301-1.799.301z" fill="#BFBFBF"/><path fill-rule="evenodd" clip-rule="evenodd" d="M14.332 23.997h-5.857c-.707 0-1.397-.096-2.064-.348-1.409-.531-2.463-1.455-3.097-2.825-.779-1.684-.765-3.374.126-5.009.751-1.378 1.906-2.289 3.44-2.687.159-.042.223-.113.261-.27.231-.958.649-1.829 1.289-2.586.985-1.165 2.207-1.954 3.712-2.26 1.615-.329 3.173-.151 4.623.661 1.63.914 2.734 2.262 3.221 4.086.039.143.101.174.234.171.887-.019 1.738.128 2.544.513.829.396 1.511.971 2.069 1.694.888 1.147 1.213 2.456 1.072 3.886-.247 2.502-2.175 4.531-4.645 4.898-.344.051-.694.069-1.042.071-1.961.008-3.923.005-5.886.005z" fill="#7F7F7F"/><path fill-rule="evenodd" clip-rule="evenodd" d="M19.464 19.855l-.06.083-1.584 1.583c-.269.268-.67.206-.837-.125-.089-.174-.066-.39.07-.527l1.313-1.313.422-.426h-2.3859999999999997c-.25 0-.453-.155-.506-.383-.054-.23.052-.478.266-.577.086-.039.19-.054.286-.055.735-.004 1.47-.001 2.205-.001h.124l-.085-.089c-.534-.534-1.062-1.073-1.604-1.601-.289-.282-.146-.76.236-.855.156-.039.304-.008.432.096l.086.08 1.57 1.571.081.074v-2.374c0-.365.344-.618.681-.498.198.072.306.225.331.434l.003.136v2.321l.083-.077 1.579-1.588c.111-.11.236-.19.402-.188.293.002.514.246.489.54-.012.146-.069.264-.172.365l-1.567 1.564-.082.089h2.338c.258 0 .449.125.524.337.118.341-.122.678-.487.679h-2.383l.074.081 1.601 1.602c.255.255.189.679-.126.828-.182.085-.358.063-.519-.059l-.086-.081-1.575-1.58-.059-.084-.035.019v.095l.001 2.256c.002.209-.071.377-.256.484-.331.191-.755-.053-.76-.443v-2.3720000000000003l-.028-.021z" fill="#fff"/></svg></svg>